SplineFontDB: 3.0
FontName: Polsku
FullName: Polsku
FamilyName: Polsku
Weight: Book
Copyright: 2010 - Sebastien Sanfilippo\n\nThis Font Software is licensed under the SIL Open Font License, Version 1.1.\n\nhttp://scripts.sil.org/OFL
FontLog: "This file provides detailed information on the Polsku Regula Font. This information should be distributed along with the Polsku Regula Font and any derivative works.+AAoA------------+AAoA-CHANGELOG+AAoACgAA-07/11/2009+AAoA(Sebastien Sanfilippo) Polsku Regula 1.0+AAoA-a-z, A-Z, period, comma, hyphen, quote-right+AAoACgAA-04/02/2011+AAoA(Paulo Silva) Polsku Regula 1.1+AAoA-Diacritics: hungarumlaut, dot+AAoA-Misc: thorn, oslash, micro, dotless-j+AAoACgAA-04/02/2011+AAoA(Paulo Silva) Polsku Regula 1.1+AAoA-Diacritics: acute, grave, tilde, diaeresis, circumflex, ring, cedilla+AAoA  (linked diacritics to latin-1 accented characters)+AAoA-Ligatures: AE, ae, OE, oe+AAoA-Misc: dotless-i+AAoACgAA-----------------------+AAoA-Acknowledgements+AAoACgAA-If you make modifications be sure to add your name (N), email (E), web-address+AAoA(if you have one) (W) and description (D). This list is in alphabetical order.+AAoACgAA-N: S+AOkA-bastien Sanfilippo+AAoA-E: tinomatic (at)gmail (dot) com+AAoA-W: http://ospublish.constantvzw.org/foundry/+AAoA-D: Designer - original Roman glyphs+AAoACgAA-N: Paulo Silva+AAoA-E: +AAoA-W: +AAoA-D: Contributor - diacritics and ligatures+AAoACgAA" 
Version: 1.1
ItalicAngle: 0
UnderlinePosition: -51
UnderlineWidth: 51
Ascent: 768
Descent: 256
LayerCount: 2
Layer: 0 1 "Back"  1
Layer: 1 1 "Fore"  0
XUID: [1021 46 1425737386 9530407]
FSType: 4
OS2Version: 3
OS2_WeightWidthSlopeOnly: 0
OS2_UseTypoMetrics: 1
CreationTime: 1257605905
ModificationTime: 1297078349
PfmFamily: 81
TTFWeight: 400
TTFWidth: 5
LineGap: 0
VLineGap: 0
Panose: 0 0 0 0 0 0 0 0 0 0
OS2TypoAscent: 0
OS2TypoAOffset: 1
OS2TypoDescent: 0
OS2TypoDOffset: 1
OS2TypoLinegap: 0
OS2WinAscent: 0
OS2WinAOffset: 1
OS2WinDescent: 0
OS2WinDOffset: 1
HheadAscent: 30

StartChar: E
Encoding: 69 69 4
Width: 931
Flags: W
LayerCount: 2
Fore
SplineSet
82 1 m 1,0,-1
 82 720 l 1,1,-1
 852 720 l 1,2,-1
 852 594 l 1,3,-1
 345 594 l 1,4,-1
 345 425 l 1,5,-1
 827 425 l 1,6,-1
 827 301 l 1,7,-1
 345 301 l 1,8,-1
 345 130 l 1,9,-1
 854 130 l 1,10,-1
 854 1 l 1,11,-1
 82 1 l 1,0,-1
EndSplineSet
Validated: 1
EndChar

StartChar: F
Encoding: 70 70 5
Width: 852
Flags: W
LayerCount: 2
Fore
SplineSet
74 0 m 1,0,-1
 74 718 l 1,1,-1
 852 718 l 1,2,-1
 852 592 l 1,3,-1
 337 592 l 1,4,-1
 337 425 l 1,5,-1
 827 425 l 1,6,-1
 827 301 l 1,7,-1
 337 301 l 1,8,-1
 337 0 l 1,9,-1
 74 0 l 1,0,-1
EndSplineSet
Validated: 1
EndChar

StartChar: G
Encoding: 71 71 6
Width: 1013
Flags: W
LayerCount: 2
Fore
SplineSet
811 321 m 1,0,-1
 948 372 l 1,1,-1
 948 0 l 1,2,-1
 811 0 l 1,3,-1
 811 60 l 1,4,5
 750 24 750 24 671 2.5 c 128,-1,6
 592 -19 592 -19 504 -19 c 0,7,8
 391 -19 391 -19 306 10.5 c 128,-1,9
 221 40 221 40 163.5 91 c 128,-1,10
 106 142 106 142 77 211 c 128,-1,11
 48 280 48 280 48 358 c 256,12,13
 48 436 48 436 84 505 c 128,-1,14
 120 574 120 574 182 626 c 128,-1,15
 244 678 244 678 327 707.5 c 128,-1,16
 410 737 410 737 504 737 c 256,17,18
 598 737 598 737 675.5 721.5 c 128,-1,19
 753 706 753 706 810.5 673.5 c 128,-1,20
 868 641 868 641 904 593 c 128,-1,21
 940 545 940 545 950 481 c 1,22,-1
 840 445 l 1,23,24
 824 489 824 489 795.5 519 c 128,-1,25
 767 549 767 549 730.5 566.5 c 128,-1,26
 694 584 694 584 651 591 c 128,-1,27
 608 598 608 598 564 598 c 0,28,29
 515 598 515 598 474.5 579 c 128,-1,30
 434 560 434 560 406 529 c 128,-1,31
 378 498 378 498 362 456.5 c 128,-1,32
 346 415 346 415 346 370 c 256,33,34
 346 325 346 325 359.5 283.5 c 128,-1,35
 373 242 373 242 400.5 210 c 128,-1,36
 428 178 428 178 471 159 c 128,-1,37
 514 140 514 140 574 140 c 0,38,39
 648 140 648 140 709 160 c 128,-1,40
 770 180 770 180 811 224 c 1,41,-1
 811 321 l 1,0,-1
EndSplineSet
Validated: 1
EndChar

StartChar: H
Encoding: 72 72 7
Width: 1072
Flags: W
LayerCount: 2
Fore
SplineSet
82 0 m 1,0,-1
 82 717 l 1,1,-1
 344 717 l 1,2,-1
 344 402 l 1,3,-1
 727 402 l 1,4,-1
 727 717 l 1,5,-1
 990 717 l 1,6,-1
 990 0 l 1,7,-1
 727 0 l 1,8,-1
 727 283 l 1,9,-1
 344 283 l 1,10,-1
 344 0 l 1,11,-1
 82 0 l 1,0,-1
EndSplineSet
Validated: 1
EndChar

StartChar: I
Encoding: 73 73 8
Width: 409
Flags: W
LayerCount: 2
Fore
SplineSet
63 0 m 5,0,-1
 63 717 l 5,1,-1
 328 717 l 5,2,-1
 328 0 l 5,3,-1
 63 0 l 5,0,-1
EndSplineSet
Validated: 1
EndChar

StartChar: J
Encoding: 74 74 9
Width: 886
Flags: W
LayerCount: 2
Fore
SplineSet
196 379 m 1,0,-1
 195 339 l 2,1,2
 194 294 194 294 207 258.5 c 128,-1,3
 220 223 220 223 244 199.5 c 128,-1,4
 268 176 268 176 301 164 c 128,-1,5
 334 152 334 152 371 152 c 0,6,7
 409 152 409 152 439.5 163 c 128,-1,8
 470 174 470 174 492 198.5 c 128,-1,9
 514 223 514 223 526 262.5 c 128,-1,10
 538 302 538 302 538 359 c 2,11,-1
 538 717 l 1,12,-1
 801 717 l 1,13,-1
 801 369 l 2,14,15
 801 284 801 284 776.5 212.5 c 128,-1,16
 752 141 752 141 701.5 90 c 128,-1,17
 651 39 651 39 576.5 10 c 128,-1,18
 502 -19 502 -19 400 -19 c 0,19,20
 325 -19 325 -19 259 4 c 128,-1,21
 193 27 193 27 143 68.5 c 128,-1,22
 93 110 93 110 64.5 168 c 128,-1,23
 36 226 36 226 36 297 c 2,24,-1
 36 379 l 1,25,-1
 196 379 l 1,0,-1
EndSplineSet
Validated: 33
EndChar

StartChar: K
Encoding: 75 75 10
Width: 978
Flags: W
LayerCount: 2
Fore
SplineSet
65 1 m 1,0,-1
 65 717 l 1,1,-1
 328 717 l 1,2,-1
 328 393 l 1,3,-1
 750 717 l 1,4,-1
 954 717 l 1,5,-1
 574 420 l 1,6,-1
 953 0 l 1,7,-1
 641 0 l 1,8,-1
 395 280 l 1,9,-1
 328 227 l 1,10,-1
 328 1 l 1,11,-1
 65 1 l 1,0,-1
EndSplineSet
Validated: 1
EndChar

StartChar: L
Encoding: 76 76 11
Width: 946
Flags: W
LayerCount: 2
Fore
SplineSet
103 0 m 1,0,-1
 103 717 l 1,1,-1
 367 717 l 1,2,-1
 367 131 l 1,3,-1
 894 131 l 1,4,-1
 894 0 l 1,5,-1
 103 0 l 1,0,-1
EndSplineSet
Validated: 1
EndChar

StartChar: M
Encoding: 77 77 12
Width: 1298
Flags: W
LayerCount: 2
Fore
SplineSet
953 717 m 1,0,-1
 1235 717 l 1,1,-1
 1235 0 l 1,2,-1
 972 0 l 1,3,-1
 972 469 l 1,4,-1
 737 0 l 1,5,-1
 486 0 l 1,6,-1
 246 479 l 1,7,-1
 246 0 l 1,8,-1
 116 0 l 1,9,-1
 116 717 l 1,10,-1
 428 717 l 1,11,-1
 685 202 l 1,12,-1
 953 717 l 1,0,-1
EndSplineSet
Validated: 1
EndChar

StartChar: N
Encoding: 78 78 13
Width: 1027
Flags: W
LayerCount: 2
Fore
SplineSet
83 1 m 1,0,-1
 83 717 l 1,1,-1
 428 717 l 1,2,-1
 782 173 l 1,3,-1
 782 717 l 1,4,-1
 945 717 l 1,5,-1
 945 1 l 1,6,-1
 895 1 l 1,7,-1
 589 0 l 1,8,-1
 246 532 l 1,9,-1
 246 1 l 1,10,-1
 83 1 l 1,0,-1
EndSplineSet
Validated: 1
EndChar

StartChar: O
Encoding: 79 79 14
Width: 972
Flags: W
LayerCount: 2
Fore
SplineSet
483 737 m 0,0,1
 588 737 588 737 673.5 711 c 128,-1,2
 759 685 759 685 818 636 c 128,-1,3
 877 587 877 587 908.5 516.5 c 128,-1,4
 940 446 940 446 940 358 c 0,5,6
 940 279 940 279 904 210.5 c 128,-1,7
 868 142 868 142 806 91 c 128,-1,8
 744 40 744 40 661.5 10.5 c 128,-1,9
 579 -19 579 -19 483 -19 c 0,10,11
 370 -19 370 -19 285.5 10.5 c 128,-1,12
 201 40 201 40 143.5 91 c 128,-1,13
 86 142 86 142 57 211 c 128,-1,14
 28 280 28 280 28 358 c 256,15,16
 28 436 28 436 63.5 505 c 128,-1,17
 99 574 99 574 161 626 c 128,-1,18
 223 678 223 678 306 707.5 c 128,-1,19
 389 737 389 737 483 737 c 0,0,1
566 131 m 0,20,21
 616 131 616 131 660.5 150 c 128,-1,22
 705 169 705 169 738 201.5 c 128,-1,23
 771 234 771 234 790.5 278.5 c 128,-1,24
 810 323 810 323 810 372 c 0,25,26
 810 422 810 422 790.5 467 c 128,-1,27
 771 512 771 512 738 545 c 128,-1,28
 705 578 705 578 660.5 597 c 128,-1,29
 616 616 616 616 566 616 c 0,30,31
 517 616 517 616 473 597 c 128,-1,32
 429 578 429 578 396.5 545 c 128,-1,33
 364 512 364 512 345 467 c 128,-1,34
 326 422 326 422 326 372 c 0,35,36
 326 323 326 323 345 278.5 c 128,-1,37
 364 234 364 234 396.5 201.5 c 128,-1,38
 429 169 429 169 473 150 c 128,-1,39
 517 131 517 131 566 131 c 0,20,21
EndSplineSet
Validated: 1
EndChar

StartChar: P
Encoding: 80 80 15
Width: 1089
Flags: W
LayerCount: 2
Fore
SplineSet
822 717 m 2,0,1
 872 717 872 717 917 700 c 128,-1,2
 962 683 962 683 994.5 654 c 128,-1,3
 1027 625 1027 625 1046 587 c 128,-1,4
 1065 549 1065 549 1065 507 c 0,5,6
 1065 453 1065 453 1037.5 414 c 128,-1,7
 1010 375 1010 375 967 350.5 c 128,-1,8
 924 326 924 326 871.5 314 c 128,-1,9
 819 302 819 302 770 302 c 2,10,-1
 346 302 l 1,11,-1
 346 0 l 1,12,-1
 83 0 l 1,13,-1
 83 717 l 1,14,-1
 822 717 l 2,0,1
346 605 m 1,15,-1
 346 420 l 1,16,-1
 680 420 l 2,17,18
 705 420 705 420 726.5 427 c 128,-1,19
 748 434 748 434 764 447 c 128,-1,20
 780 460 780 460 789.5 477 c 128,-1,21
 799 494 799 494 799 512 c 0,22,23
 799 531 799 531 789.5 548 c 128,-1,24
 780 565 780 565 764 578 c 128,-1,25
 748 591 748 591 726.5 598 c 128,-1,26
 705 605 705 605 680 605 c 2,27,-1
 346 605 l 1,15,-1
EndSplineSet
Validated: 1
EndChar

StartChar: Q
Encoding: 81 81 16
Width: 1028
Flags: W
LayerCount: 2
Fore
SplineSet
1049 74 m 1,0,1
 1038 55 1038 55 1020 37 c 128,-1,2
 1002 19 1002 19 980.5 6.5 c 128,-1,3
 959 -6 959 -6 934 -14 c 128,-1,4
 909 -22 909 -22 884 -22 c 0,5,6
 835 -22 835 -22 797.5 -7.5 c 128,-1,7
 760 7 760 7 726 43 c 1,8,9
 673 13 673 13 612 -3 c 128,-1,10
 551 -19 551 -19 483 -19 c 0,11,12
 370 -19 370 -19 285.5 10.5 c 128,-1,13
 201 40 201 40 143.5 91 c 128,-1,14
 86 142 86 142 57 211 c 128,-1,15
 28 280 28 280 28 358 c 256,16,17
 28 436 28 436 63.5 505 c 128,-1,18
 99 574 99 574 161 626 c 128,-1,19
 223 678 223 678 306 707.5 c 128,-1,20
 389 737 389 737 483 737 c 0,21,22
 585 737 585 737 669.5 710.5 c 128,-1,23
 754 684 754 684 813.5 636.5 c 128,-1,24
 873 589 873 589 906.5 522.5 c 128,-1,25
 940 456 940 456 940 375 c 0,26,27
 940 314 940 314 917.5 256.5 c 128,-1,28
 895 199 895 199 855 150 c 1,29,30
 866 135 866 135 879.5 126.5 c 128,-1,31
 893 118 893 118 913 118 c 0,32,33
 935 118 935 118 958.5 130.5 c 128,-1,34
 982 143 982 143 1000 165 c 1,35,-1
 1049 74 l 1,0,1
336 380 m 0,36,37
 336 346 336 346 345 314 c 1,38,39
 358 324 358 324 377 336 c 128,-1,40
 396 348 396 348 420 359 c 128,-1,41
 444 370 444 370 473.5 377 c 128,-1,42
 503 384 503 384 536 384 c 0,43,44
 610 384 610 384 666.5 358.5 c 128,-1,45
 723 333 723 333 777 278 c 1,46,47
 796 322 796 322 797 370 c 0,48,49
 797 419 797 419 777 462 c 128,-1,50
 757 505 757 505 723.5 537.5 c 128,-1,51
 690 570 690 570 646 589 c 128,-1,52
 602 608 602 608 554 608 c 0,53,54
 509 608 509 608 469 589 c 128,-1,55
 429 570 429 570 399.5 539 c 128,-1,56
 370 508 370 508 353 466.5 c 128,-1,57
 336 425 336 425 336 380 c 0,36,37
554 131 m 0,58,59
 578 131 578 131 601 136 c 128,-1,60
 624 141 624 141 645 150 c 1,61,62
 631 168 631 168 613 186 c 128,-1,63
 595 204 595 204 573.5 218 c 128,-1,64
 552 232 552 232 526 241 c 128,-1,65
 500 250 500 250 470 250 c 0,66,67
 439 250 439 250 418.5 242 c 128,-1,68
 398 234 398 234 387 226 c 1,69,70
 417 183 417 183 460 157 c 128,-1,71
 503 131 503 131 554 131 c 0,58,59
EndSplineSet
Validated: 1
EndChar

StartChar: R
Encoding: 82 82 17
Width: 1258
Flags: W
LayerCount: 2
Fore
SplineSet
83 717 m 1,0,-1
 822 717 l 2,1,2
 872 717 872 717 917 700 c 128,-1,3
 962 683 962 683 994.5 654 c 128,-1,4
 1027 625 1027 625 1046 587 c 128,-1,5
 1065 549 1065 549 1065 507 c 0,6,7
 1065 453 1065 453 1037.5 414 c 128,-1,8
 1010 375 1010 375 967 350.5 c 128,-1,9
 924 326 924 326 871.5 314 c 128,-1,10
 819 302 819 302 770 302 c 2,11,-1
 601 302 l 1,12,13
 624 270 624 270 653 240 c 128,-1,14
 682 210 682 210 718 186.5 c 128,-1,15
 754 163 754 163 796.5 148.5 c 128,-1,16
 839 134 839 134 889 134 c 0,17,18
 944 134 944 134 991 156.5 c 128,-1,19
 1038 179 1038 179 1073 206 c 0,20,21
 1114 238 1114 238 1147 278 c 1,22,-1
 1252 181 l 1,23,24
 1181 84 1181 84 1082.5 32 c 128,-1,25
 984 -20 984 -20 863 -20 c 0,26,27
 749 -20 749 -20 661.5 15.5 c 128,-1,28
 574 51 574 51 497 136 c 1,29,-1
 346 296 l 1,30,-1
 346 0 l 1,31,-1
 83 0 l 1,32,-1
 83 717 l 1,0,-1
346 605 m 1,33,-1
 346 420 l 1,34,-1
 680 420 l 2,35,36
 705 420 705 420 726.5 427 c 128,-1,37
 748 434 748 434 764 447 c 128,-1,38
 780 460 780 460 789.5 477 c 128,-1,39
 799 494 799 494 799 512 c 0,40,41
 799 531 799 531 789.5 548 c 128,-1,42
 780 565 780 565 764 578 c 128,-1,43
 748 591 748 591 726.5 598 c 128,-1,44
 705 605 705 605 680 605 c 2,45,-1
 346 605 l 1,33,-1
EndSplineSet
Validated: 1
EndChar

StartChar: S
Encoding: 83 83 18
Width: 1080
Flags: W
LayerCount: 2
Fore
SplineSet
530 738 m 0,0,1
 620 738 620 738 692.5 727 c 128,-1,2
 765 716 765 716 820.5 697.5 c 128,-1,3
 876 679 876 679 915 655.5 c 128,-1,4
 954 632 954 632 979 607 c 1,5,-1
 890 531 l 1,6,7
 876 540 876 540 846.5 554 c 128,-1,8
 817 568 817 568 775.5 582 c 128,-1,9
 734 596 734 596 683 605.5 c 128,-1,10
 632 615 632 615 575 615 c 0,11,12
 453 615 453 615 399.5 599 c 128,-1,13
 346 583 346 583 346 550 c 0,14,15
 346 527 346 527 366 515 c 128,-1,16
 386 503 386 503 432 494.5 c 128,-1,17
 478 486 478 486 554 478.5 c 128,-1,18
 630 471 630 471 741 458 c 0,19,20
 886 440 886 440 958.5 381 c 128,-1,21
 1031 322 1031 322 1031 245 c 0,22,23
 1031 225 1031 225 1024.5 197.5 c 128,-1,24
 1018 170 1018 170 998.5 140.5 c 128,-1,25
 979 111 979 111 945 82 c 128,-1,26
 911 53 911 53 856.5 30 c 128,-1,27
 802 7 802 7 724 -6.5 c 128,-1,28
 646 -20 646 -20 540 -20 c 0,29,30
 429 -20 429 -20 348.5 -4 c 128,-1,31
 268 12 268 12 210.5 36.5 c 128,-1,32
 153 61 153 61 114.5 89.5 c 128,-1,33
 76 118 76 118 49 141 c 1,34,-1
 160 218 l 1,35,36
 218 166 218 166 315.5 134.5 c 128,-1,37
 413 103 413 103 545 103 c 0,38,39
 660 103 660 103 711 124.5 c 128,-1,40
 762 146 762 146 762 181 c 0,41,42
 762 207 762 207 742.5 220.5 c 128,-1,43
 723 234 723 234 680.5 243 c 128,-1,44
 638 252 638 252 570 258.5 c 128,-1,45
 502 265 502 265 404 275 c 0,46,47
 310 284 310 284 247 308 c 128,-1,48
 184 332 184 332 146.5 363 c 128,-1,49
 109 394 109 394 93 429 c 128,-1,50
 77 464 77 464 77 497 c 0,51,52
 77 535 77 535 97 577.5 c 128,-1,53
 117 620 117 620 167.5 655.5 c 128,-1,54
 218 691 218 691 306 714.5 c 128,-1,55
 394 738 394 738 530 738 c 0,0,1
EndSplineSet
Validated: 1
EndChar

StartChar: T
Encoding: 84 84 19
Width: 909
Flags: W
LayerCount: 2
Fore
SplineSet
323 1 m 1,0,-1
 323 593 l 1,1,-1
 0 593 l 1,2,-1
 0 717 l 1,3,-1
 913 717 l 1,4,-1
 913 593 l 1,5,-1
 586 593 l 1,6,-1
 586 1 l 1,7,-1
 323 1 l 1,0,-1
EndSplineSet
Validated: 1
EndChar

StartChar: U
Encoding: 85 85 20
Width: 1032
Flags: W
LayerCount: 2
Fore
SplineSet
1000 717 m 1,0,-1
 1000 297 l 2,1,2
 1000 218 1000 218 964.5 159 c 128,-1,3
 929 100 929 100 867 60 c 128,-1,4
 805 20 805 20 722 0.5 c 128,-1,5
 639 -19 639 -19 544 -19 c 0,6,7
 318 -19 318 -19 203 60 c 128,-1,8
 88 139 88 139 88 297 c 2,9,-1
 88 717 l 1,10,-1
 396 717 l 1,11,-1
 396 339 l 2,12,13
 396 282 396 282 413 245.5 c 128,-1,14
 430 209 430 209 459.5 188.5 c 128,-1,15
 489 168 489 168 529 160 c 128,-1,16
 569 152 569 152 614 152 c 0,17,18
 658 152 658 152 699.5 161 c 128,-1,19
 741 170 741 170 772.5 192 c 128,-1,20
 804 214 804 214 823 250 c 128,-1,21
 842 286 842 286 842 339 c 2,22,-1
 841 717 l 1,23,-1
 1000 717 l 1,0,-1
EndSplineSet
Validated: 1
EndChar

StartChar: V
Encoding: 86 86 21
Width: 869
Flags: W
LayerCount: 2
Fore
SplineSet
744 717 m 1,0,-1
 906 717 l 1,1,-1
 595 0 l 1,2,-1
 285 0 l 1,3,-1
 -31 717 l 1,4,-1
 270 717 l 1,5,-1
 507 144 l 1,6,-1
 744 717 l 1,0,-1
EndSplineSet
Validated: 1
EndChar

StartChar: W
Encoding: 87 87 22
Width: 1438
Flags: W
LayerCount: 2
Fore
SplineSet
623 717 m 1,0,-1
 914 717 l 1,1,-1
 1072 165 l 1,2,-1
 1270 717 l 1,3,-1
 1427 717 l 1,4,-1
 1157 0 l 1,5,-1
 847 0 l 1,6,-1
 694 488 l 1,7,-1
 524 0 l 1,8,-1
 214 0 l 1,9,-1
 -30 717 l 1,10,-1
 271 717 l 1,11,-1
 435 172 l 1,12,-1
 623 717 l 1,0,-1
EndSplineSet
Validated: 1
EndChar

StartChar: X
Encoding: 88 88 23
Width: 978
Flags: W
LayerCount: 2
Fore
SplineSet
430 220 m 1,0,-1
 214 0 l 1,1,-1
 1 0 l 1,2,-1
 335 330 l 1,3,-1
 0 717 l 1,4,-1
 325 717 l 1,5,-1
 527 485 l 1,6,-1
 760 717 l 1,7,-1
 954 717 l 1,8,-1
 620 380 l 1,9,-1
 953 0 l 1,10,-1
 621 0 l 1,11,-1
 430 220 l 1,0,-1
EndSplineSet
Validated: 1
EndChar

StartChar: Y
Encoding: 89 89 24
Width: 1078
Flags: W
LayerCount: 2
Fore
SplineSet
11 717 m 1,0,-1
 336 717 l 1,1,-1
 609 378 l 1,2,-1
 889 717 l 1,3,-1
 1068 717 l 1,4,-1
 675 241 l 1,5,-1
 675 1 l 1,6,-1
 411 1 l 1,7,-1
 411 234 l 1,8,-1
 406 234 l 1,9,-1
 11 717 l 1,0,-1
EndSplineSet
Validated: 1
EndChar

StartChar: Z
Encoding: 90 90 25
Width: 978
Flags: W
LayerCount: 2
Fore
SplineSet
942 584 m 1,0,-1
 941 584 l 1,1,-1
 421 130 l 1,2,-1
 945 130 l 1,3,-1
 945 -1 l 1,4,-1
 62 -1 l 1,5,-1
 62 135 l 1,6,-1
 578 584 l 1,7,-1
 65 584 l 1,8,-1
 65 716 l 1,9,-1
 943 716 l 1,10,-1
 942 585 l 1,11,-1
 942 584 l 1,0,-1
EndSplineSet
Validated: 1
EndChar

StartChar: a
Encoding: 97 97 26
Width: 793
Flags: W
LayerCount: 2
Fore
SplineSet
524 0 m 1,0,-1
 524 86 l 1,1,2
 498 62 498 62 472 43 c 128,-1,3
 446 24 446 24 415 10 c 128,-1,4
 384 -4 384 -4 346 -12 c 128,-1,5
 308 -20 308 -20 259 -20 c 0,6,7
 217 -20 217 -20 176.5 -12.5 c 128,-1,8
 136 -5 136 -5 104 13.5 c 128,-1,9
 72 32 72 32 52 63 c 128,-1,10
 32 94 32 94 32 141 c 0,11,12
 32 178 32 178 51 204 c 128,-1,13
 70 230 70 230 100.5 248 c 128,-1,14
 131 266 131 266 172 277.5 c 128,-1,15
 213 289 213 289 257 294.5 c 128,-1,16
 301 300 301 300 345.5 302 c 128,-1,17
 390 304 390 304 428 304 c 2,18,-1
 523 304 l 1,19,20
 517 367 517 367 470 398 c 128,-1,21
 423 429 423 429 323 429 c 0,22,23
 289 429 289 429 258.5 420.5 c 128,-1,24
 228 412 228 412 203 399 c 128,-1,25
 178 386 178 386 159 370 c 128,-1,26
 140 354 140 354 129 339 c 1,27,-1
 71 373 l 1,28,29
 98 418 98 418 141 445.5 c 128,-1,30
 184 473 184 473 234.5 488 c 128,-1,31
 285 503 285 503 336 508 c 128,-1,32
 387 513 387 513 429 513 c 0,33,34
 504 513 504 513 565.5 499.5 c 128,-1,35
 627 486 627 486 671 458.5 c 128,-1,36
 715 431 715 431 738.5 387.5 c 128,-1,37
 762 344 762 344 762 283 c 2,38,-1
 762 0 l 1,39,-1
 524 0 l 1,0,-1
428 233 m 0,40,41
 409 233 409 233 381.5 230 c 128,-1,42
 354 227 354 227 329.5 217.5 c 128,-1,43
 305 208 305 208 287.5 190 c 128,-1,44
 270 172 270 172 270 141 c 0,45,46
 270 111 270 111 292 97.5 c 128,-1,47
 314 84 314 84 344 84 c 0,48,49
 387 84 387 84 434 102 c 128,-1,50
 481 120 481 120 524 169 c 1,51,-1
 524 232 l 1,52,53
 499 232 499 232 475.5 232.5 c 128,-1,54
 452 233 452 233 428 233 c 0,40,41
EndSplineSet
Validated: 1
EndChar

StartChar: b
Encoding: 98 98 27
Width: 852
Flags: W
LayerCount: 2
Fore
SplineSet
821 263 m 0,0,1
 821 204 821 204 796 152 c 128,-1,2
 771 100 771 100 726.5 62 c 128,-1,3
 682 24 682 24 621 2 c 128,-1,4
 560 -20 560 -20 488 -20 c 0,5,6
 406 -20 406 -20 357 -5.5 c 128,-1,7
 308 9 308 9 276 38 c 1,8,-1
 276 0 l 1,9,-1
 32 0 l 1,10,-1
 32 717 l 1,11,-1
 276 717 l 1,12,-1
 276 433 l 1,13,14
 315 469 315 469 373.5 491 c 128,-1,15
 432 513 432 513 509 513 c 0,16,17
 578 513 578 513 635.5 494 c 128,-1,18
 693 475 693 475 734 441.5 c 128,-1,19
 775 408 775 408 798 362 c 128,-1,20
 821 316 821 316 821 263 c 0,0,1
423 84 m 0,21,22
 457 84 457 84 486 97.5 c 128,-1,23
 515 111 515 111 537 133.5 c 128,-1,24
 559 156 559 156 571.5 184.5 c 128,-1,25
 584 213 584 213 584 244 c 0,26,27
 584 278 584 278 572 307.5 c 128,-1,28
 560 337 560 337 538.5 359.5 c 128,-1,29
 517 382 517 382 487.5 395.5 c 128,-1,30
 458 409 458 409 423 409 c 0,31,32
 367 409 367 409 333 396 c 128,-1,33
 299 383 299 383 276 356 c 1,34,-1
 276 126 l 1,35,36
 323 84 323 84 423 84 c 0,21,22
EndSplineSet
Validated: 1
EndChar

StartChar: c
Encoding: 99 99 28
Width: 775
Flags: W
LayerCount: 2
Fore
SplineSet
667 317 m 1,0,1
 634 379 634 379 587 402 c 128,-1,2
 540 425 540 425 470 425 c 0,3,4
 427 425 427 425 390 410 c 128,-1,5
 353 395 353 395 325.5 371 c 128,-1,6
 298 347 298 347 282.5 316.5 c 128,-1,7
 267 286 267 286 267 254 c 256,8,9
 267 222 267 222 278 191.5 c 128,-1,10
 289 161 289 161 312 137 c 128,-1,11
 335 113 335 113 371 98 c 128,-1,12
 407 83 407 83 457 83 c 0,13,14
 492 83 492 83 526.5 89 c 128,-1,15
 561 95 561 95 591 107 c 128,-1,16
 621 119 621 119 645 137 c 128,-1,17
 669 155 669 155 683 178 c 1,18,-1
 742 148 l 1,19,20
 732 114 732 114 700.5 84 c 128,-1,21
 669 54 669 54 621.5 31 c 128,-1,22
 574 8 574 8 515.5 -5.5 c 128,-1,23
 457 -19 457 -19 392 -19 c 0,24,25
 303 -19 303 -19 235.5 2 c 128,-1,26
 168 23 168 23 123 58.5 c 128,-1,27
 78 94 78 94 55 142 c 128,-1,28
 32 190 32 190 32 246 c 256,29,30
 32 301 32 301 60 349.5 c 128,-1,31
 88 398 88 398 137 434.5 c 128,-1,32
 186 471 186 471 251.5 492 c 128,-1,33
 317 513 317 513 392 513 c 0,34,35
 466 513 466 513 527 501.5 c 128,-1,36
 588 490 588 490 633.5 467.5 c 128,-1,37
 679 445 679 445 707 411.5 c 128,-1,38
 735 378 735 378 743 333 c 1,39,-1
 667 317 l 1,0,1
EndSplineSet
Validated: 1
EndChar

StartChar: d
Encoding: 100 100 29
Width: 852
Flags: W
LayerCount: 2
Fore
SplineSet
32 229 m 0,0,1
 32 288 32 288 57 340 c 128,-1,2
 82 392 82 392 126.5 430.5 c 128,-1,3
 171 469 171 469 232 491 c 128,-1,4
 293 513 293 513 365 513 c 0,5,6
 447 513 447 513 495.5 497.5 c 128,-1,7
 544 482 544 482 577 454 c 1,8,-1
 577 717 l 1,9,-1
 821 717 l 1,10,-1
 821 0 l 1,11,-1
 577 0 l 1,12,-1
 577 58 l 1,13,14
 538 23 538 23 479.5 1.5 c 128,-1,15
 421 -20 421 -20 344 -20 c 0,16,17
 274 -20 274 -20 217 -1.5 c 128,-1,18
 160 17 160 17 119 51 c 128,-1,19
 78 85 78 85 55 130.5 c 128,-1,20
 32 176 32 176 32 229 c 0,0,1
430 409 m 0,21,22
 396 409 396 409 367 395.5 c 128,-1,23
 338 382 338 382 316 359.5 c 128,-1,24
 294 337 294 337 281.5 308.5 c 128,-1,25
 269 280 269 280 269 249 c 0,26,27
 269 215 269 215 281 185.5 c 128,-1,28
 293 156 293 156 314.5 133.5 c 128,-1,29
 336 111 336 111 365.5 97.5 c 128,-1,30
 395 84 395 84 430 84 c 0,31,32
 486 84 486 84 519.5 96.5 c 128,-1,33
 553 109 553 109 577 135 c 1,34,-1
 577 367 l 1,35,36
 528 409 528 409 430 409 c 0,21,22
EndSplineSet
Validated: 1
EndChar

StartChar: e
Encoding: 101 101 30
Width: 785
Flags: W
LayerCount: 2
Fore
SplineSet
457 83 m 0,0,1
 492 83 492 83 526.5 89 c 128,-1,2
 561 95 561 95 591 107 c 128,-1,3
 621 119 621 119 645 137 c 128,-1,4
 669 155 669 155 683 178 c 1,5,-1
 742 148 l 1,6,7
 732 114 732 114 700.5 84 c 128,-1,8
 669 54 669 54 621.5 31 c 128,-1,9
 574 8 574 8 515.5 -5.5 c 128,-1,10
 457 -19 457 -19 392 -19 c 0,11,12
 303 -19 303 -19 235.5 2 c 128,-1,13
 168 23 168 23 123 58.5 c 128,-1,14
 78 94 78 94 55 142 c 128,-1,15
 32 190 32 190 32 246 c 256,16,17
 32 301 32 301 60 349.5 c 128,-1,18
 88 398 88 398 137 434.5 c 128,-1,19
 186 471 186 471 251.5 492 c 128,-1,20
 317 513 317 513 392 513 c 0,21,22
 466 513 466 513 528.5 500.5 c 128,-1,23
 591 488 591 488 638.5 462.5 c 128,-1,24
 686 437 686 437 715.5 398 c 128,-1,25
 745 359 745 359 754 307 c 1,26,-1
 754 228 l 1,27,-1
 268 228 l 1,28,29
 272 199 272 199 285 173 c 128,-1,30
 298 147 298 147 321 127.5 c 128,-1,31
 344 108 344 108 378 95.5 c 128,-1,32
 412 83 412 83 457 83 c 0,0,1
470 425 m 0,33,34
 436 425 436 425 406 415.5 c 128,-1,35
 376 406 376 406 351 390 c 128,-1,36
 326 374 326 374 307.5 352.5 c 128,-1,37
 289 331 289 331 279 307 c 1,38,-1
 652 307 l 1,39,40
 643 341 643 341 625.5 364 c 128,-1,41
 608 387 608 387 584.5 400.5 c 128,-1,42
 561 414 561 414 532 419.5 c 128,-1,43
 503 425 503 425 470 425 c 0,33,34
EndSplineSet
Validated: 1
EndChar

StartChar: f
Encoding: 102 102 31
Width: 560
Flags: W
LayerCount: 2
Fore
SplineSet
32 512 m 1,0,-1
 126 512 l 1,1,2
 134 559 134 559 159 598.5 c 128,-1,3
 184 638 184 638 224.5 667 c 128,-1,4
 265 696 265 696 320 712.5 c 128,-1,5
 375 729 375 729 442 729 c 0,6,7
 512 729 512 729 556 722.5 c 128,-1,8
 600 716 600 716 629 703.5 c 128,-1,9
 658 691 658 691 679 673.5 c 128,-1,10
 700 656 700 656 725 635 c 1,11,-1
 670 570 l 1,12,13
 646 588 646 588 628 600 c 128,-1,14
 610 612 610 612 593.5 619 c 128,-1,15
 577 626 577 626 557.5 628.5 c 128,-1,16
 538 631 538 631 510 631 c 0,17,18
 442 631 442 631 410 600.5 c 128,-1,19
 378 570 378 570 370 512 c 1,20,-1
 554 512 l 1,21,-1
 554 419 l 1,22,-1
 368 419 l 1,23,-1
 368 0 l 1,24,-1
 123 0 l 1,25,-1
 123 419 l 1,26,-1
 32 419 l 1,27,-1
 32 512 l 1,0,-1
EndSplineSet
Validated: 1
EndChar

StartChar: g
Encoding: 103 103 32
Width: 852
Flags: W
LayerCount: 2
Fore
SplineSet
182 -48 m 1,0,1
 230 -84 230 -84 273.5 -101.5 c 128,-1,2
 317 -119 317 -119 373 -119 c 0,3,4
 438 -119 438 -119 477.5 -104 c 128,-1,5
 517 -89 517 -89 538.5 -64 c 128,-1,6
 560 -39 560 -39 567.5 -5.5 c 128,-1,7
 575 28 575 28 577 66 c 1,8,-1
 577 79 l 1,9,10
 538 44 538 44 479.5 22 c 128,-1,11
 421 0 421 0 344 0 c 0,12,13
 274 0 274 0 217 19 c 128,-1,14
 160 38 160 38 119 71.5 c 128,-1,15
 78 105 78 105 55 151 c 128,-1,16
 32 197 32 197 32 250 c 0,17,18
 32 309 32 309 57 361 c 128,-1,19
 82 413 82 413 126.5 451 c 128,-1,20
 171 489 171 489 232 511.5 c 128,-1,21
 293 534 293 534 365 534 c 0,22,23
 447 534 447 534 495.5 518.5 c 128,-1,24
 544 503 544 503 577 474 c 1,25,-1
 577 512 l 1,26,-1
 821 512 l 1,27,-1
 821 105 l 2,28,29
 821 43 821 43 796 -15.5 c 128,-1,30
 771 -74 771 -74 721 -118.5 c 128,-1,31
 671 -163 671 -163 595.5 -190 c 128,-1,32
 520 -217 520 -217 420 -217 c 0,33,34
 319 -217 319 -217 247 -186.5 c 128,-1,35
 175 -156 175 -156 127 -113 c 1,36,-1
 182 -48 l 1,0,1
430 429 m 0,37,38
 396 429 396 429 367 415.5 c 128,-1,39
 338 402 338 402 316 379.5 c 128,-1,40
 294 357 294 357 281.5 328.5 c 128,-1,41
 269 300 269 300 269 269 c 0,42,43
 269 235 269 235 281 205.5 c 128,-1,44
 293 176 293 176 314.5 153.5 c 128,-1,45
 336 131 336 131 365.5 117.5 c 128,-1,46
 395 104 395 104 430 104 c 0,47,48
 486 104 486 104 519.5 116.5 c 128,-1,49
 553 129 553 129 577 156 c 1,50,-1
 577 387 l 1,51,52
 528 429 528 429 430 429 c 0,37,38
EndSplineSet
Validated: 1
EndChar

StartChar: h
Encoding: 104 104 33
Width: 852
Flags: W
LayerCount: 2
Fore
SplineSet
32 718 m 5,0,-1
 276 718 l 5,1,-1
 276 423 l 5,2,3
 315 461 315 461 376.5 487 c 128,-1,4
 438 513 438 513 529 513 c 0,5,6
 680 513 680 513 750.5 458.5 c 128,-1,7
 821 404 821 404 821 283 c 2,8,-1
 821 0 l 1,9,-1
 584 0 l 1,10,-1
 584 262 l 2,11,12
 584 337 584 337 547.5 373 c 128,-1,13
 511 409 511 409 433 409 c 0,14,15
 377 409 377 409 338.5 381 c 128,-1,16
 300 353 300 353 276 317 c 1,17,-1
 276 0 l 5,18,-1
 32 0 l 5,19,-1
 32 718 l 5,0,-1
EndSplineSet
Validated: 1
EndChar

StartChar: i
Encoding: 105 105 34
Width: 349
Flags: W
LayerCount: 2
Fore
SplineSet
53 502 m 1,0,1
 111 470 111 470 177.5 470.5 c 128,-1,2
 244 471 244 471 298 502 c 1,3,-1
 298 0 l 1,4,-1
 53 0 l 1,5,-1
 53 502 l 1,0,1
32 624 m 4,6,7
 32 647 32 647 42 667 c 132,-1,8
 52 687 52 687 71 702.5 c 132,-1,9
 90 718 90 718 116.5 727 c 132,-1,10
 143 736 143 736 175 736 c 260,11,12
 207 736 207 736 233 727 c 132,-1,13
 259 718 259 718 278 702.5 c 132,-1,14
 297 687 297 687 307 666.5 c 132,-1,15
 317 646 317 646 317 624 c 4,16,17
 317 600 317 600 307 580 c 132,-1,18
 297 560 297 560 278 544.5 c 132,-1,19
 259 529 259 529 233 520.5 c 132,-1,20
 207 512 207 512 175 512 c 260,21,22
 143 512 143 512 116.5 520.5 c 132,-1,23
 90 529 90 529 71 544.5 c 132,-1,24
 52 560 52 560 42 580 c 132,-1,25
 32 600 32 600 32 624 c 4,6,7
EndSplineSet
Validated: 33
EndChar

StartChar: j
Encoding: 106 106 35
Width: 386
Flags: W
LayerCount: 2
Fore
SplineSet
-127 -106 m 1,0,1
 -117 -112 -117 -112 -94 -115.5 c 128,-1,2
 -71 -119 -71 -119 -52 -119 c 0,3,4
 25 -119 25 -119 56.5 -80 c 128,-1,5
 88 -41 88 -41 90 35 c 1,6,-1
 90 502 l 1,7,8
 118 487 118 487 149 479 c 128,-1,9
 180 471 180 471 212.5 471 c 128,-1,10
 245 471 245 471 276 478.5 c 128,-1,11
 307 486 307 486 335 502 c 1,12,-1
 335 34 l 1,13,14
 333 -19 333 -19 310.5 -65.5 c 128,-1,15
 288 -112 288 -112 246.5 -145.5 c 128,-1,16
 205 -179 205 -179 146.5 -198 c 128,-1,17
 88 -217 88 -217 15 -217 c 0,18,19
 -50 -217 -50 -217 -97.5 -202.5 c 128,-1,20
 -145 -188 -145 -188 -162 -172 c 1,21,-1
 -127 -106 l 1,0,1
69 624 m 0,22,23
 69 647 69 647 79 667 c 128,-1,24
 89 687 89 687 108 702.5 c 128,-1,25
 127 718 127 718 153.5 727 c 128,-1,26
 180 736 180 736 212 736 c 256,27,28
 244 736 244 736 270 727 c 128,-1,29
 296 718 296 718 315 702.5 c 128,-1,30
 334 687 334 687 344 666.5 c 128,-1,31
 354 646 354 646 354 624 c 0,32,33
 354 600 354 600 344 580 c 128,-1,34
 334 560 334 560 315 544.5 c 128,-1,35
 296 529 296 529 270 520.5 c 128,-1,36
 244 512 244 512 212 512 c 256,37,38
 180 512 180 512 153.5 520.5 c 128,-1,39
 127 529 127 529 108 544.5 c 128,-1,40
 89 560 89 560 79 580 c 128,-1,41
 69 600 69 600 69 624 c 0,22,23
EndSplineSet
Validated: 1
EndChar

StartChar: k
Encoding: 107 107 36
Width: 852
Flags: W
LayerCount: 2
Fore
SplineSet
42 1 m 1,0,-1
 42 717 l 1,1,-1
 287 717 l 1,2,-1
 287 288 l 1,3,-1
 659 512 l 1,4,-1
 829 512 l 1,5,-1
 565 350 l 1,6,-1
 829 0 l 1,7,-1
 513 0 l 1,8,-1
 354 220 l 1,9,-1
 287 178 l 1,10,-1
 287 1 l 1,11,-1
 42 1 l 1,0,-1
EndSplineSet
Validated: 1
EndChar

StartChar: l
Encoding: 108 108 37
Width: 308
Flags: W
LayerCount: 2
Fore
SplineSet
32 717 m 1,0,-1
 276 717 l 1,1,-1
 276 0 l 1,2,-1
 32 0 l 1,3,-1
 32 717 l 1,0,-1
EndSplineSet
Validated: 1
EndChar

StartChar: m
Encoding: 109 109 38
Width: 1364
Flags: W
LayerCount: 2
Fore
SplineSet
32 512 m 1,0,-1
 276 512 l 1,1,-1
 276 425 l 1,2,3
 313 463 313 463 371 488 c 128,-1,4
 429 513 429 513 519 513 c 0,5,6
 629 513 629 513 692.5 485 c 128,-1,7
 756 457 756 457 782 394 c 1,8,9
 800 419 800 419 824.5 440.5 c 128,-1,10
 849 462 849 462 881 478.5 c 128,-1,11
 913 495 913 495 955 504 c 128,-1,12
 997 513 997 513 1052 513 c 0,13,14
 1127 513 1127 513 1180.5 499.5 c 128,-1,15
 1234 486 1234 486 1268 458.5 c 128,-1,16
 1302 431 1302 431 1317.5 387.5 c 128,-1,17
 1333 344 1333 344 1333 283 c 2,18,-1
 1333 0 l 1,19,-1
 1096 0 l 1,20,-1
 1096 262 l 2,21,22
 1096 337 1096 337 1064.5 373 c 128,-1,23
 1033 409 1033 409 955 409 c 0,24,25
 925 409 925 409 902 400 c 128,-1,26
 879 391 879 391 861 377.5 c 128,-1,27
 843 364 843 364 828.5 345.5 c 128,-1,28
 814 327 814 327 803 308 c 1,29,-1
 800 310 l 1,30,31
 800 303 800 303 800.5 296.5 c 128,-1,32
 801 290 801 290 801 283 c 2,33,-1
 801 0 l 1,34,-1
 563 0 l 1,35,-1
 563 262 l 2,36,37
 563 337 563 337 532 373 c 128,-1,38
 501 409 501 409 423 409 c 0,39,40
 395 409 395 409 372.5 401 c 128,-1,41
 350 393 350 393 332.5 380.5 c 128,-1,42
 315 368 315 368 301.5 351.5 c 128,-1,43
 288 335 288 335 276 317 c 1,44,-1
 276 0 l 1,45,-1
 32 0 l 1,46,-1
 32 512 l 1,0,-1
EndSplineSet
Validated: 1
EndChar

StartChar: n
Encoding: 110 110 39
Width: 852
Flags: W
LayerCount: 2
Fore
SplineSet
32 512 m 1,0,-1
 276 512 l 1,1,-1
 276 423 l 1,2,3
 315 461 315 461 376.5 487 c 128,-1,4
 438 513 438 513 529 513 c 0,5,6
 680 513 680 513 750.5 458.5 c 128,-1,7
 821 404 821 404 821 283 c 2,8,-1
 821 0 l 1,9,-1
 584 0 l 1,10,-1
 584 262 l 2,11,12
 584 337 584 337 547.5 373 c 128,-1,13
 511 409 511 409 433 409 c 0,14,15
 377 409 377 409 338.5 381 c 128,-1,16
 300 353 300 353 276 317 c 1,17,-1
 276 0 l 1,18,-1
 32 0 l 1,19,-1
 32 512 l 1,0,-1
EndSplineSet
Validated: 1
EndChar

StartChar: o
Encoding: 111 111 40
Width: 733
Flags: W
LayerCount: 2
Fore
SplineSet
366 532 m 0,0,1
 444 532 444 532 505.5 513.5 c 128,-1,2
 567 495 567 495 610.5 459 c 128,-1,3
 654 423 654 423 677.5 371 c 128,-1,4
 701 319 701 319 701 255 c 0,5,6
 701 198 701 198 674.5 147.5 c 128,-1,7
 648 97 648 97 602.5 59.5 c 128,-1,8
 557 22 557 22 496 0 c 128,-1,9
 435 -22 435 -22 366 -22 c 0,10,11
 284 -22 284 -22 221.5 0 c 128,-1,12
 159 22 159 22 117 59.5 c 128,-1,13
 75 97 75 97 53.5 147.5 c 128,-1,14
 32 198 32 198 32 255 c 256,15,16
 32 312 32 312 58 363 c 128,-1,17
 84 414 84 414 129.5 451 c 128,-1,18
 175 488 175 488 235.5 510 c 128,-1,19
 296 532 296 532 366 532 c 0,0,1
418 113 m 0,20,21
 451 113 451 113 480 125 c 128,-1,22
 509 137 509 137 530.5 158.5 c 128,-1,23
 552 180 552 180 565 209 c 128,-1,24
 578 238 578 238 578 271 c 256,25,26
 578 304 578 304 565 333 c 128,-1,27
 552 362 552 362 530.5 384 c 128,-1,28
 509 406 509 406 480 418.5 c 128,-1,29
 451 431 451 431 418 431 c 0,30,31
 384 431 384 431 355 418.5 c 128,-1,32
 326 406 326 406 304.5 384 c 128,-1,33
 283 362 283 362 270.5 333 c 128,-1,34
 258 304 258 304 258 271 c 0,35,36
 258 237 258 237 270.5 208.5 c 128,-1,37
 283 180 283 180 304.5 158.5 c 128,-1,38
 326 137 326 137 355 125 c 128,-1,39
 384 113 384 113 418 113 c 0,20,21
EndSplineSet
Validated: 1
EndChar

StartChar: p
Encoding: 112 112 41
Width: 852
Flags: W
LayerCount: 2
Fore
SplineSet
821 263 m 0,0,1
 821 204 821 204 796 152 c 128,-1,2
 771 100 771 100 726.5 62 c 128,-1,3
 682 24 682 24 621 2 c 128,-1,4
 560 -20 560 -20 488 -20 c 0,5,6
 406 -20 406 -20 357 -5.5 c 128,-1,7
 308 9 308 9 276 38 c 5,8,-1
 276 -206 l 5,9,-1
 32 -206 l 5,10,-1
 32 511 l 5,11,-1
 276 511 l 5,12,-1
 276 433 l 1,13,14
 315 469 315 469 373.5 491 c 128,-1,15
 432 513 432 513 509 513 c 0,16,17
 578 513 578 513 635.5 494 c 128,-1,18
 693 475 693 475 734 441.5 c 128,-1,19
 775 408 775 408 798 362 c 128,-1,20
 821 316 821 316 821 263 c 0,0,1
423 84 m 0,21,22
 457 84 457 84 486 97.5 c 128,-1,23
 515 111 515 111 537 133.5 c 128,-1,24
 559 156 559 156 571.5 184.5 c 128,-1,25
 584 213 584 213 584 244 c 0,26,27
 584 278 584 278 572 307.5 c 128,-1,28
 560 337 560 337 538.5 359.5 c 128,-1,29
 517 382 517 382 487.5 395.5 c 128,-1,30
 458 409 458 409 423 409 c 0,31,32
 367 409 367 409 333 396 c 128,-1,33
 299 383 299 383 276 356 c 1,34,-1
 276 126 l 1,35,36
 323 84 323 84 423 84 c 0,21,22
EndSplineSet
Validated: 1
EndChar

StartChar: q
Encoding: 113 113 42
Width: 852
Flags: W
LayerCount: 2
Fore
SplineSet
32 229 m 0,0,1
 32 288 32 288 57 340 c 128,-1,2
 82 392 82 392 126.5 430.5 c 128,-1,3
 171 469 171 469 232 491 c 128,-1,4
 293 513 293 513 365 513 c 0,5,6
 447 513 447 513 495.5 497.5 c 128,-1,7
 544 482 544 482 577 454 c 1,8,-1
 577 512 l 1,9,-1
 821 512 l 1,10,-1
 821 -205 l 1,11,-1
 577 -205 l 1,12,-1
 577 58 l 1,13,14
 538 23 538 23 479.5 1.5 c 128,-1,15
 421 -20 421 -20 344 -20 c 0,16,17
 274 -20 274 -20 217 -1.5 c 128,-1,18
 160 17 160 17 119 51 c 128,-1,19
 78 85 78 85 55 130.5 c 128,-1,20
 32 176 32 176 32 229 c 0,0,1
430 409 m 0,21,22
 396 409 396 409 367 395.5 c 128,-1,23
 338 382 338 382 316 359.5 c 128,-1,24
 294 337 294 337 281.5 308.5 c 128,-1,25
 269 280 269 280 269 249 c 0,26,27
 269 215 269 215 281 185.5 c 128,-1,28
 293 156 293 156 314.5 133.5 c 128,-1,29
 336 111 336 111 365.5 97.5 c 128,-1,30
 395 84 395 84 430 84 c 0,31,32
 486 84 486 84 519.5 96.5 c 128,-1,33
 553 109 553 109 577 135 c 1,34,-1
 577 367 l 1,35,36
 528 409 528 409 430 409 c 0,21,22
EndSplineSet
Validated: 1
EndChar

StartChar: r
Encoding: 114 114 43
Width: 703
Flags: W
LayerCount: 2
Fore
SplineSet
32 512 m 1,0,-1
 276 512 l 1,1,-1
 276 419 l 1,2,3
 312 459 312 459 368 486 c 128,-1,4
 424 513 424 513 509 513 c 0,5,6
 549 513 549 513 588 497.5 c 128,-1,7
 627 482 627 482 652 448 c 128,-1,8
 677 414 677 414 683.5 358 c 128,-1,9
 690 302 690 302 668 221 c 1,10,-1
 430 201 l 1,11,12
 444 228 444 228 451 263.5 c 128,-1,13
 458 299 458 299 453.5 331.5 c 128,-1,14
 449 364 449 364 432 386.5 c 128,-1,15
 415 409 415 409 382 409 c 0,16,17
 345 409 345 409 319 382 c 128,-1,18
 293 355 293 355 276 322 c 1,19,-1
 276 0 l 1,20,-1
 32 0 l 1,21,-1
 32 512 l 1,0,-1
EndSplineSet
Validated: 33
EndChar

StartChar: s
Encoding: 115 115 44
Width: 852
Flags: W
LayerCount: 2
Fore
SplineSet
410 512 m 0,0,1
 482 512 482 512 538.5 504.5 c 128,-1,2
 595 497 595 497 638.5 483.5 c 128,-1,3
 682 470 682 470 713 453.5 c 128,-1,4
 744 437 744 437 764 420 c 1,5,-1
 697 367 l 1,6,7
 686 373 686 373 662.5 383 c 128,-1,8
 639 393 639 393 605.5 402.5 c 128,-1,9
 572 412 572 412 530.5 419 c 128,-1,10
 489 426 489 426 443 426 c 0,11,12
 378 426 378 426 350.5 417 c 128,-1,13
 323 408 323 408 323 390 c 0,14,15
 323 375 323 375 342.5 366 c 128,-1,16
 362 357 362 357 394.5 351 c 128,-1,17
 427 345 427 345 469 340 c 128,-1,18
 511 335 511 335 554 328 c 128,-1,19
 597 321 597 321 639 309.5 c 128,-1,20
 681 298 681 298 713 279.5 c 128,-1,21
 745 261 745 261 765 233.5 c 128,-1,22
 785 206 785 206 785 166 c 0,23,24
 785 144 785 144 772.5 112.5 c 128,-1,25
 760 81 760 81 720.5 51.5 c 128,-1,26
 681 22 681 22 609 1 c 128,-1,27
 537 -20 537 -20 417 -20 c 0,28,29
 334 -20 334 -20 274 -8.5 c 128,-1,30
 214 3 214 3 170.5 20.5 c 128,-1,31
 127 38 127 38 98 57.5 c 128,-1,32
 69 77 69 77 49 93 c 1,33,-1
 132 147 l 1,34,35
 175 110 175 110 249 88.5 c 128,-1,36
 323 67 323 67 421 67 c 0,37,38
 480 67 480 67 505.5 76.5 c 128,-1,39
 531 86 531 86 531 101 c 0,40,41
 531 121 531 121 497 131.5 c 128,-1,42
 463 142 463 142 411.5 151 c 128,-1,43
 360 160 360 160 300.5 170 c 128,-1,44
 241 180 241 180 189.5 200 c 128,-1,45
 138 220 138 220 104 254 c 128,-1,46
 70 288 70 288 70 342 c 0,47,48
 70 369 70 369 84.5 398.5 c 128,-1,49
 99 428 99 428 137.5 453.5 c 128,-1,50
 176 479 176 479 242.5 495.5 c 128,-1,51
 309 512 309 512 410 512 c 0,0,1
EndSplineSet
Validated: 1
EndChar

StartChar: t
Encoding: 116 116 45
Width: 585
Flags: W
LayerCount: 2
Fore
SplineSet
32 512 m 1,0,-1
 143 512 l 1,1,-1
 143 717 l 1,2,-1
 388 717 l 1,3,-1
 388 512 l 1,4,-1
 554 512 l 1,5,-1
 554 419 l 1,6,-1
 388 419 l 1,7,-1
 388 205 l 2,8,9
 388 188 388 188 389 159 c 128,-1,10
 390 130 390 130 398 99.5 c 128,-1,11
 406 69 406 69 422.5 41 c 128,-1,12
 439 13 439 13 470 0 c 1,13,-1
 225 0 l 1,14,15
 198 9 198 9 182 30 c 128,-1,16
 166 51 166 51 157 76 c 128,-1,17
 148 101 148 101 145.5 127.5 c 128,-1,18
 143 154 143 154 143 174 c 2,19,-1
 143 419 l 1,20,-1
 32 419 l 1,21,-1
 32 512 l 1,0,-1
EndSplineSet
Validated: 1
EndChar

StartChar: u
Encoding: 117 117 46
Width: 852
Flags: W
LayerCount: 2
Fore
SplineSet
821 0 m 1,0,-1
 577 0 l 1,1,-1
 577 88 l 1,2,3
 538 49 538 49 476.5 24 c 128,-1,4
 415 -1 415 -1 324 -1 c 0,5,6
 173 -1 173 -1 102.5 53.5 c 128,-1,7
 32 108 32 108 32 229 c 2,8,-1
 32 512 l 1,9,-1
 269 512 l 1,10,-1
 269 250 l 2,11,12
 269 175 269 175 305.5 139 c 128,-1,13
 342 103 342 103 420 103 c 0,14,15
 476 103 476 103 514.5 131 c 128,-1,16
 553 159 553 159 577 194 c 1,17,-1
 577 512 l 1,18,-1
 821 512 l 1,19,-1
 821 0 l 1,0,-1
EndSplineSet
Validated: 1
EndChar

StartChar: v
Encoding: 118 118 47
Width: 785
Flags: W
LayerCount: 2
Fore
SplineSet
638 512 m 1,0,-1
 754 512 l 1,1,-1
 531 0 l 1,2,-1
 258 0 l 1,3,-1
 32 512 l 1,4,-1
 299 512 l 1,5,-1
 468 103 l 1,6,-1
 638 512 l 1,0,-1
EndSplineSet
Validated: 1
EndChar

StartChar: w
Encoding: 119 119 48
Width: 1258
Flags: W
LayerCount: 2
Fore
SplineSet
578 512 m 1,0,-1
 839 512 l 1,1,-1
 980 132 l 1,2,-1
 1122 512 l 1,3,-1
 1227 512 l 1,4,-1
 1027 0 l 1,5,-1
 781 0 l 1,6,-1
 630 381 l 1,7,-1
 481 0 l 1,8,-1
 236 0 l 1,9,-1
 32 512 l 1,10,-1
 293 512 l 1,11,-1
 434 131 l 1,12,-1
 578 512 l 1,0,-1
EndSplineSet
Validated: 1
EndChar

StartChar: x
Encoding: 120 120 49
Width: 745
Flags: W
LayerCount: 2
Fore
SplineSet
310 138 m 1,0,-1
 174 0 l 1,1,-1
 33 0 l 1,2,-1
 252 216 l 1,3,-1
 32 512 l 1,4,-1
 325 512 l 1,5,-1
 432 370 l 1,6,-1
 574 512 l 1,7,-1
 714 512 l 1,8,-1
 493 290 l 1,9,-1
 713 0 l 1,10,-1
 414 0 l 1,11,-1
 310 138 l 1,0,-1
EndSplineSet
Validated: 1
EndChar

StartChar: y
Encoding: 121 121 50
Width: 785
Flags: W
LayerCount: 2
Fore
SplineSet
638 512 m 1,0,-1
 754 512 l 1,1,-1
 531 0 l 1,2,-1
 514 0 l 1,3,-1
 512 -1 l 1,4,-1
 531 -1 l 1,5,6
 477 -118 477 -118 401 -187 c 128,-1,7
 325 -256 325 -256 222 -256 c 0,8,9
 189 -256 189 -256 158 -246.5 c 128,-1,10
 127 -237 127 -237 103 -216 c 128,-1,11
 79 -195 79 -195 67 -162 c 128,-1,12
 55 -129 55 -129 61 -83 c 1,13,-1
 155 -72 l 1,14,15
 157 -118 157 -118 179 -135 c 128,-1,16
 201 -152 201 -152 239 -152 c 0,17,18
 278 -152 278 -152 305.5 -131 c 128,-1,19
 333 -110 333 -110 356 -77 c 1,20,-1
 32 512 l 1,21,-1
 299 512 l 1,22,-1
 484 150 l 1,23,-1
 638 512 l 1,0,-1
EndSplineSet
Validated: 33
EndChar

StartChar: z
Encoding: 122 122 51
Width: 695
Flags: W
LayerCount: 2
Fore
SplineSet
662 418 m 1,0,-1
 660 418 l 1,1,-1
 321 93 l 1,2,-1
 664 93 l 1,3,-1
 664 -1 l 1,4,-1
 32 -1 l 1,5,-1
 32 96 l 1,6,-1
 368 418 l 1,7,-1
 33 418 l 1,8,-1
 33 512 l 1,9,-1
 663 512 l 1,10,-1
 662 419 l 1,11,-1
 662 418 l 1,0,-1
EndSplineSet
Validated: 1
EndChar

StartChar: D
Encoding: 68 68 52
Width: 1055
Flags: W
LayerCount: 2
Fore
SplineSet
642 717 m 2,0,1
 726 717 726 717 795 688.5 c 128,-1,2
 864 660 864 660 914.5 612 c 128,-1,3
 965 564 965 564 992.5 499 c 128,-1,4
 1020 434 1020 434 1020 359 c 256,5,6
 1020 284 1020 284 987 219 c 128,-1,7
 954 154 954 154 899.5 105 c 128,-1,8
 845 56 845 56 772.5 28 c 128,-1,9
 700 0 700 0 622 0 c 2,10,-1
 82 0 l 1,11,-1
 82 717 l 1,12,-1
 642 717 l 2,0,1
347 605 m 1,13,-1
 347 125 l 1,14,-1
 505 125 l 2,15,16
 555 125 555 125 600 142.5 c 128,-1,17
 645 160 645 160 679 191 c 128,-1,18
 713 222 713 222 733 264.5 c 128,-1,19
 753 307 753 307 753 357 c 256,20,21
 753 407 753 407 737.5 452.5 c 128,-1,22
 722 498 722 498 693 531.5 c 128,-1,23
 664 565 664 565 621.5 585 c 128,-1,24
 579 605 579 605 525 605 c 2,25,-1
 347 605 l 1,13,-1
EndSplineSet
Validated: 1
EndChar

StartChar: comma
Encoding: 44 44 53
Width: 356
Flags: W
LayerCount: 2
Fore
SplineSet
32 112 m 0,0,1
 32 135 32 135 42 155 c 128,-1,2
 52 175 52 175 71 190.5 c 128,-1,3
 90 206 90 206 116.5 215 c 128,-1,4
 143 224 143 224 175 224 c 0,5,6
 223 224 223 224 258 204 c 128,-1,7
 293 184 293 184 308 153 c 1,8,-1
 308 154 l 1,9,10
 321 136 321 136 323.5 100.5 c 128,-1,11
 326 65 326 65 319.5 27 c 128,-1,12
 313 -11 313 -11 301.5 -43.5 c 128,-1,13
 290 -76 290 -76 276 -89 c 1,14,-1
 164 -89 l 1,15,16
 187 -63 187 -63 198.5 -40.5 c 128,-1,17
 210 -18 210 -18 214 3 c 1,18,19
 196 0 196 0 175 0 c 0,20,21
 143 0 143 0 116.5 8.5 c 128,-1,22
 90 17 90 17 71 32.5 c 128,-1,23
 52 48 52 48 42 68 c 128,-1,24
 32 88 32 88 32 112 c 0,0,1
EndSplineSet
Validated: 33
EndChar

StartChar: period
Encoding: 46 46 54
Width: 349
Flags: W
LayerCount: 2
Fore
SplineSet
32 112 m 0,0,1
 32 135 32 135 42 155 c 128,-1,2
 52 175 52 175 71 190.5 c 128,-1,3
 90 206 90 206 116.5 215 c 128,-1,4
 143 224 143 224 175 224 c 256,5,6
 207 224 207 224 233 215 c 128,-1,7
 259 206 259 206 278 190.5 c 128,-1,8
 297 175 297 175 307 154.5 c 128,-1,9
 317 134 317 134 317 112 c 0,10,11
 317 88 317 88 307 68 c 128,-1,12
 297 48 297 48 278 32.5 c 128,-1,13
 259 17 259 17 233 8.5 c 128,-1,14
 207 0 207 0 175 0 c 256,15,16
 143 0 143 0 116.5 8.5 c 128,-1,17
 90 17 90 17 71 32.5 c 128,-1,18
 52 48 52 48 42 68 c 128,-1,19
 32 88 32 88 32 112 c 0,0,1
EndSplineSet
Validated: 1
EndChar

StartChar: quoteright
Encoding: 259 8217 55
Width: 356
Flags: W
LayerCount: 2
Fore
SplineSet
32 624 m 0,0,1
 32 647 32 647 42 667 c 128,-1,2
 52 687 52 687 71 702.5 c 128,-1,3
 90 718 90 718 116.5 727 c 128,-1,4
 143 736 143 736 175 736 c 0,5,6
 223 736 223 736 258 716 c 128,-1,7
 293 696 293 696 308 665 c 1,8,-1
 308 666 l 1,9,10
 321 648 321 648 323.5 612.5 c 128,-1,11
 326 577 326 577 319.5 539 c 128,-1,12
 313 501 313 501 301.5 468.5 c 128,-1,13
 290 436 290 436 276 423 c 1,14,-1
 164 423 l 1,15,16
 187 449 187 449 198.5 471 c 128,-1,17
 210 493 210 493 214 515 c 1,18,19
 196 512 196 512 175 512 c 0,20,21
 143 512 143 512 116.5 520.5 c 128,-1,22
 90 529 90 529 71 544.5 c 128,-1,23
 52 560 52 560 42 580 c 128,-1,24
 32 600 32 600 32 624 c 0,0,1
EndSplineSet
Validated: 33
EndChar

StartChar: hyphen
Encoding: 45 45 56
Width: 370
Flags: W
LayerCount: 2
Fore
SplineSet
32 336 m 1,0,-1
 339 336 l 1,1,-1
 339 231 l 1,2,-1
 32 231 l 1,3,-1
 32 336 l 1,0,-1
EndSplineSet
Validated: 1
EndChar

StartChar: A
Encoding: 65 65 57
Width: 1000
Flags: W
LayerCount: 2
Fore
SplineSet
160 0 m 1,0,-1
 -2 0 l 1,1,-1
 309 717 l 1,2,-1
 671 717 l 1,3,-1
 986 0 l 1,4,-1
 685 0 l 1,5,-1
 620 158 l 1,6,-1
 225 158 l 1,7,-1
 160 0 l 1,0,-1
290 313 m 1,8,-1
 555 313 l 1,9,-1
 422 634 l 1,10,-1
 290 313 l 1,8,-1
EndSplineSet
Validated: 1
EndChar

StartChar: B
Encoding: 66 66 58
Width: 1082
Flags: W
LayerCount: 2
Fore
SplineSet
754 717 m 2,0,1
 792 717 792 717 825 703.5 c 128,-1,2
 858 690 858 690 882.5 666.5 c 128,-1,3
 907 643 907 643 921.5 612 c 128,-1,4
 936 581 936 581 936 545 c 0,5,6
 936 502 936 502 915.5 466 c 128,-1,7
 895 430 895 430 860 407 c 1,8,9
 900 403 900 403 934.5 385.5 c 128,-1,10
 969 368 969 368 994 340.5 c 128,-1,11
 1019 313 1019 313 1034 278.5 c 128,-1,12
 1049 244 1049 244 1049 204 c 0,13,14
 1049 162 1049 162 1032.5 124.5 c 128,-1,15
 1016 87 1016 87 987 59.5 c 128,-1,16
 958 32 958 32 920 16 c 128,-1,17
 882 0 882 0 839 0 c 2,18,-1
 59 0 l 1,19,-1
 59 717 l 1,20,-1
 754 717 l 2,0,1
323 330 m 1,21,-1
 323 134 l 1,22,-1
 675 134 l 1,23,24
 690 135 690 135 706.5 143.5 c 128,-1,25
 723 152 723 152 736.5 164.5 c 128,-1,26
 750 177 750 177 758.5 194.5 c 128,-1,27
 767 212 767 212 767 231 c 256,28,29
 767 250 767 250 758.5 268 c 128,-1,30
 750 286 750 286 736.5 298.5 c 128,-1,31
 723 311 723 311 706.5 319.5 c 128,-1,32
 690 328 690 328 675 330 c 1,33,-1
 323 330 l 1,21,-1
323 607 m 1,34,-1
 323 477 l 1,35,-1
 605 477 l 1,36,37
 631 479 631 479 648.5 497.5 c 128,-1,38
 666 516 666 516 666 543 c 0,39,40
 666 569 666 569 648.5 587 c 128,-1,41
 631 605 631 605 605 607 c 1,42,-1
 323 607 l 1,34,-1
EndSplineSet
Validated: 1
EndChar

StartChar: C
Encoding: 67 67 59
Width: 983
Flags: W
LayerCount: 2
Fore
SplineSet
840 445 m 1,0,1
 824 489 824 489 795.5 519 c 128,-1,2
 767 549 767 549 730.5 566.5 c 128,-1,3
 694 584 694 584 651 591 c 128,-1,4
 608 598 608 598 564 598 c 0,5,6
 515 598 515 598 474.5 579 c 128,-1,7
 434 560 434 560 406 529 c 128,-1,8
 378 498 378 498 362 456.5 c 128,-1,9
 346 415 346 415 346 370 c 256,10,11
 346 325 346 325 359.5 283.5 c 128,-1,12
 373 242 373 242 400.5 210 c 128,-1,13
 428 178 428 178 471 159 c 128,-1,14
 514 140 514 140 574 140 c 0,15,16
 664 140 664 140 734.5 170 c 128,-1,17
 805 200 805 200 842 266 c 1,18,-1
 948 219 l 1,19,20
 936 171 936 171 895.5 128 c 128,-1,21
 855 85 855 85 795.5 52 c 128,-1,22
 736 19 736 19 661.5 0 c 128,-1,23
 587 -19 587 -19 504 -19 c 0,24,25
 391 -19 391 -19 306 10.5 c 128,-1,26
 221 40 221 40 163.5 91 c 128,-1,27
 106 142 106 142 77 211 c 128,-1,28
 48 280 48 280 48 358 c 256,29,30
 48 436 48 436 84 505 c 128,-1,31
 120 574 120 574 182 626 c 128,-1,32
 244 678 244 678 327 707.5 c 128,-1,33
 410 737 410 737 504 737 c 256,34,35
 598 737 598 737 675.5 721.5 c 128,-1,36
 753 706 753 706 810.5 673.5 c 128,-1,37
 868 641 868 641 904 593 c 128,-1,38
 940 545 940 545 950 481 c 1,39,-1
 840 445 l 1,0,1
EndSplineSet
Validated: 1
EndChar

StartChar: asciitilde
Encoding: 126 126 61
Width: 1024
VWidth: 0
Flags: W
LayerCount: 2
Fore
SplineSet
423.311 941.889 m 5,0,1
 467.617 940.687 467.617 940.687 500.574 927.716 c 132,-1,2
 533.533 914.744 533.533 914.744 550.836 897.262 c 132,-1,3
 568.141 879.779 568.141 879.779 580.695 862.533 c 132,-1,4
 593.248 845.286 593.248 845.286 604.965 833.786 c 132,-1,5
 616.682 822.286 616.682 822.286 630.246 823.026 c 5,6,7
 654.955 819.41 654.955 819.41 672.908 840.134 c 132,-1,8
 690.863 860.857 690.863 860.857 691.076 900.938 c 5,9,-1
 744.953 900.938 l 5,10,11
 746.287 755.578 746.287 755.578 574.426 757.524 c 5,12,13
 542.125 757.227 542.125 757.227 519.5 769.981 c 132,-1,14
 496.873 782.736 496.873 782.736 484.232 800.868 c 132,-1,15
 471.592 818.999 471.592 818.999 459.648 836.956 c 132,-1,16
 447.705 854.913 447.705 854.913 428.596 866.626 c 132,-1,17
 409.486 878.338 409.486 878.338 382.098 876.648 c 5,18,19
 356.711 876.426 356.711 876.426 345.312 850.757 c 132,-1,20
 333.914 825.088 333.914 825.088 335.01 794.854 c 5,21,-1
 279.676 794.854 l 5,22,23
 274.352 855.118 274.352 855.118 313.322 897.843 c 132,-1,24
 352.293 940.567 352.293 940.567 423.311 941.889 c 5,0,1
EndSplineSet
EndChar

StartChar: asciicircum
Encoding: 94 94 62
Width: 613
VWidth: 0
Flags: W
LayerCount: 2
Fore
SplineSet
256.279 864.3 m 1,0,-1
 177.619 798.925 l 1,1,-1
 86.3008 798.925 l 1,2,-1
 241.156 922.199 l 1,3,-1
 381.387 922.501 l 1,4,-1
 526.699 798.925 l 1,5,-1
 333.053 798.925 l 1,6,-1
 256.279 864.3 l 1,0,-1
EndSplineSet
EndChar

StartChar: grave
Encoding: 96 96 63
Width: 619
VWidth: 0
Flags: W
LayerCount: 2
Fore
SplineSet
330.794 923.797 m 5,0,-1
 111.691 923.797 l 5,1,-1
 377.744 799.563 l 5,2,-1
 507.309 799.563 l 5,3,-1
 330.794 923.797 l 5,0,-1
EndSplineSet
EndChar

StartChar: acute
Encoding: 260 180 64
Width: 619
VWidth: 0
Flags: W
LayerCount: 2
Fore
SplineSet
288.206 923.797 m 5,0,-1
 507.309 923.797 l 5,1,-1
 241.256 799.563 l 5,2,-1
 111.691 799.563 l 5,3,-1
 288.206 923.797 l 5,0,-1
EndSplineSet
EndChar

StartChar: cedilla
Encoding: 261 184 65
Width: 445
VWidth: 0
Flags: W
LayerCount: 2
Fore
SplineSet
161.973 8.88477 m 1,0,-1
 254.871 8.88477 l 1,1,-1
 223.906 -36.9922 l 1,2,3
 253.826 -41.1035 253.826 -41.1035 281.582 -51.958 c 128,-1,4
 309.337 -62.8115 309.337 -62.8115 331.668 -85.5264 c 128,-1,5
 354 -108.242 354 -108.242 353.871 -137.459 c 0,6,7
 353.604 -165.878 353.604 -165.878 337.498 -186.812 c 128,-1,8
 321.391 -207.747 321.391 -207.747 295.207 -218.514 c 128,-1,9
 269.021 -229.28 269.021 -229.28 242.467 -234.238 c 128,-1,10
 215.911 -239.196 215.911 -239.196 188.07 -239.494 c 0,11,12
 133.798 -239.316 133.798 -239.316 95.0371 -230.272 c 1,13,-1
 109.607 -195.361 l 1,14,15
 132.085 -199.588 132.085 -199.588 158.131 -200.218 c 0,16,17
 193.124 -200.049 193.124 -200.049 219.085 -183.984 c 128,-1,18
 245.046 -167.919 245.046 -167.919 245.641 -134.38 c 1,19,20
 245.314 -105.043 245.314 -105.043 215 -87 c 128,-1,21
 184.688 -68.958 184.688 -68.958 152.139 -68.543 c 0,22,23
 133.316 -68.543 133.316 -68.543 118.107 -71.5605 c 1,24,-1
 161.973 8.88477 l 1,0,-1
EndSplineSet
EndChar

StartChar: Oslash
Encoding: 216 216 88
Width: 972
Flags: W
LayerCount: 2
Fore
SplineSet
862 676 m 5,0,-1
 1000 676 l 5,1,-1
 155.565 0 l 5,2,-1
 26 0 l 5,3,-1
 862 676 l 5,0,-1
EndSplineSet
Refer: 14 79 N 1 0 0 1 0 0 2
EndChar

StartChar: oslash
Encoding: 248 248 113
Width: 733
Flags: W
LayerCount: 2
Fore
SplineSet
595 498 m 5,0,-1
 733 498 l 5,1,-1
 155.565 0 l 1,2,-1
 26 0 l 1,3,-1
 595 498 l 5,0,-1
EndSplineSet
Refer: 40 111 N 1 0 0 1 0 0 2
EndChar

StartChar: ae
Encoding: 230 230 120
Width: 1295
VWidth: 0
Flags: W
LayerCount: 2
Fore
SplineSet
429.144 537 m 0,0,1
 504.144 537 504.144 537 565.644 523.5 c 128,-1,2
 627.145 510 627.145 510 671.144 482.5 c 0,3,-1
 677.269 478.5 l 1,4,5
 715.457 501.182 715.457 501.182 761.674 516 c 0,6,7
 827.174 537 827.174 537 902.174 537 c 0,8,9
 976.175 537 976.175 537 1038.67 524.5 c 128,-1,10
 1101.17 512 1101.17 512 1148.67 486.5 c 128,-1,11
 1196.17 461 1196.17 461 1225.67 422 c 128,-1,12
 1255.17 383 1255.17 383 1264.17 331 c 1,13,-1
 1264.17 252 l 1,14,-1
 778.174 252 l 1,15,16
 782.175 223 782.175 223 795.174 197 c 128,-1,17
 808.174 171 808.174 171 831.174 151.5 c 128,-1,18
 854.175 132 854.175 132 888.174 119.5 c 128,-1,19
 922.174 107 922.174 107 967.174 107 c 0,20,21
 1002.17 107 1002.17 107 1036.67 113 c 128,-1,22
 1071.17 119 1071.17 119 1101.17 131 c 128,-1,23
 1131.17 143 1131.17 143 1155.17 161 c 128,-1,24
 1179.17 179 1179.17 179 1193.17 202 c 1,25,-1
 1252.17 172 l 1,26,27
 1242.17 138 1242.17 138 1210.67 108 c 128,-1,28
 1179.17 78 1179.17 78 1131.67 55 c 128,-1,29
 1084.17 32 1084.17 32 1025.67 18.5 c 128,-1,30
 967.175 5 967.175 5 902.174 5 c 0,31,32
 813.174 5 813.174 5 745.674 26 c 128,-1,33
 678.174 47 678.174 47 633.174 82.5 c 0,34,35
 606.462 103.573 606.462 103.573 587.394 129.25 c 1,36,37
 505.696 64.5215 505.696 64.5215 430.394 32.7627 c 128,-1,38
 355.091 1.00488 355.091 1.00488 259.144 4 c 1,39,40
 216.967 3.18262 216.967 3.18262 177.965 12.0762 c 128,-1,41
 138.964 20.9688 138.964 20.9688 105.785 39.4375 c 128,-1,42
 72.6064 57.9062 72.6064 57.9062 52.5479 90.3652 c 128,-1,43
 32.4883 122.825 32.4883 122.825 32.1436 165 c 0,44,45
 32.1426 202 32.1426 202 51.1436 228 c 128,-1,46
 70.1445 254 70.1445 254 100.644 272 c 128,-1,47
 131.145 290 131.145 290 172.144 301.5 c 128,-1,48
 213.145 313 213.145 313 257.144 318.5 c 128,-1,49
 301.143 324 301.143 324 345.644 326 c 128,-1,50
 390.145 328 390.145 328 428.144 328 c 2,51,-1
 523.144 328 l 1,52,53
 517.143 391 517.143 391 470.144 422 c 128,-1,54
 423.145 453 423.145 453 323.144 453 c 0,55,56
 289.143 453 289.143 453 258.644 444.5 c 128,-1,57
 228.145 436 228.145 436 203.144 423 c 128,-1,58
 178.145 410 178.145 410 159.144 394 c 128,-1,59
 140.143 378 140.143 378 129.144 363 c 1,60,-1
 71.1436 397 l 1,61,62
 98.1426 442 98.1426 442 141.144 469.5 c 128,-1,63
 184.143 497 184.143 497 234.644 512 c 128,-1,64
 285.144 527 285.144 527 336.144 532 c 128,-1,65
 387.144 537 387.144 537 429.144 537 c 0,0,1
980.174 449 m 0,66,67
 946.174 449 946.174 449 916.174 439.5 c 128,-1,68
 886.174 430 886.174 430 861.174 414 c 128,-1,69
 836.175 398 836.175 398 817.674 376.5 c 128,-1,70
 799.174 355 799.174 355 789.174 331 c 1,71,-1
 1162.17 331 l 1,72,73
 1153.17 365 1153.17 365 1135.67 388 c 128,-1,74
 1118.17 411 1118.17 411 1094.67 424.5 c 128,-1,75
 1071.17 438 1071.17 438 1042.17 443.5 c 128,-1,76
 1013.17 449 1013.17 449 980.174 449 c 0,66,67
428.144 257 m 0,77,78
 409.143 257 409.143 257 381.644 254 c 128,-1,79
 354.143 251 354.143 251 329.644 241.5 c 128,-1,80
 305.145 232 305.145 232 287.644 214 c 128,-1,81
 270.144 196 270.144 196 270.144 165 c 0,82,83
 270.143 135 270.143 135 292.144 121.5 c 128,-1,84
 314.144 108 314.144 108 344.144 108 c 0,85,86
 387.145 108 387.145 108 434.144 126 c 128,-1,87
 481.143 144 481.143 144 524.144 193 c 1,88,-1
 524.144 256 l 1,89,90
 499.167 256 499.167 256 475.644 256.5 c 128,-1,91
 452.144 257 452.144 257 428.144 257 c 0,77,78
EndSplineSet
EndChar

StartChar: oe
Encoding: 277 339 121
Width: 1318
VWidth: 0
Flags: W
LayerCount: 2
Fore
SplineSet
366 556 m 0,0,1
 444.002 556 444.002 556 505.5 537.5 c 128,-1,2
 567 519 567 519 610.5 483 c 0,3,4
 632.525 464.772 632.525 464.772 649.5 442.312 c 1,5,6
 659.184 450.814 659.184 450.814 669.5 458.5 c 0,7,8
 718.501 495 718.501 495 784 516 c 128,-1,9
 849.5 537 849.5 537 924.5 537 c 0,10,11
 998.501 537 998.501 537 1061 524.5 c 128,-1,12
 1123.5 512 1123.5 512 1171 486.5 c 128,-1,13
 1218.5 461 1218.5 461 1248 422 c 128,-1,14
 1277.5 383 1277.5 383 1286.5 331 c 1,15,-1
 1286.5 252 l 1,16,-1
 800.5 252 l 1,17,18
 804.501 223 804.501 223 817.5 197 c 128,-1,19
 830.499 171 830.499 171 853.5 151.5 c 128,-1,20
 876.501 132 876.501 132 910.5 119.5 c 128,-1,21
 944.5 107 944.5 107 989.5 107 c 0,22,23
 1024.5 107 1024.5 107 1059 113 c 128,-1,24
 1093.5 119 1093.5 119 1123.5 131 c 128,-1,25
 1153.5 143 1153.5 143 1177.5 161 c 128,-1,26
 1201.5 179 1201.5 179 1215.5 202 c 1,27,-1
 1274.5 172 l 1,28,29
 1264.5 138 1264.5 138 1233 108 c 128,-1,30
 1201.5 78 1201.5 78 1154 55 c 128,-1,31
 1106.5 32 1106.5 32 1048 18.5 c 128,-1,32
 989.501 5 989.501 5 924.5 5 c 0,33,34
 835.5 5 835.5 5 768 26 c 128,-1,35
 700.5 47 700.5 47 655.5 82.5 c 0,36,37
 640.812 94.0879 640.812 94.0879 628.219 107.312 c 1,38,39
 616.184 94.7783 616.184 94.7783 602.5 83.5 c 0,40,41
 556.999 46 556.999 46 496 24 c 128,-1,42
 435 2 435 2 366 2 c 0,43,44
 283.999 2 283.999 2 221.5 24 c 128,-1,45
 159 46 159 46 117 83.5 c 128,-1,46
 75 121 75 121 53.5 171.5 c 128,-1,47
 32 222 32 222 32 279 c 128,-1,48
 31.999 336 31.999 336 58 387 c 128,-1,49
 83.999 438 83.999 438 129.5 475 c 128,-1,50
 174.999 512 174.999 512 235.5 534 c 128,-1,51
 296.001 556 296.001 556 366 556 c 0,0,1
418 455 m 0,52,53
 384.001 455 384.001 455 355 442.5 c 128,-1,54
 326.001 430 326.001 430 304.5 408 c 128,-1,55
 283 386 283 386 270.5 357 c 128,-1,56
 258 328 258 328 258 295 c 0,57,58
 257.999 261 257.999 261 270.5 232.5 c 128,-1,59
 282.999 204 282.999 204 304.5 182.5 c 128,-1,60
 325.999 161 325.999 161 355 149 c 128,-1,61
 384.001 137 384.001 137 418 137 c 0,62,63
 450.999 137 450.999 137 480 149 c 128,-1,64
 508.999 161 508.999 161 530.5 182.5 c 128,-1,65
 552 204 552 204 565 233 c 0,66,67
 565.576 234.284 565.576 234.284 566.625 236.812 c 0,68,69
 564.5 253.162 564.5 253.162 564.5 270 c 0,70,71
 564.5 301.584 564.5 301.584 573.812 331.188 c 1,72,73
 570.631 344.439 570.631 344.439 565 357 c 0,74,75
 552 386 552 386 530.5 408 c 128,-1,76
 509.001 430 509.001 430 480 442.5 c 128,-1,77
 451 455 451 455 418 455 c 0,52,53
1002.5 449 m 0,78,79
 968.5 449 968.5 449 938.5 439.5 c 128,-1,80
 908.499 430 908.499 430 883.5 414 c 128,-1,81
 858.501 398 858.501 398 840 376.5 c 128,-1,82
 821.499 355 821.499 355 811.5 331 c 1,83,-1
 1184.5 331 l 1,84,85
 1175.5 365 1175.5 365 1158 388 c 128,-1,86
 1140.5 411 1140.5 411 1117 424.5 c 128,-1,87
 1093.5 438 1093.5 438 1064.5 443.5 c 128,-1,88
 1035.5 449 1035.5 449 1002.5 449 c 0,78,79
EndSplineSet
EndChar

StartChar: OE
Encoding: 278 338 122
Width: 1551
VWidth: 0
Flags: W
LayerCount: 2
Fore
SplineSet
482.844 761 m 0,0,1
 587.844 761 587.844 761 673.344 735 c 0,2,3
 689.18 730.185 689.18 730.185 704 724.625 c 1,4,-1
 704 744 l 1,5,-1
 1474 744 l 1,6,-1
 1474 618 l 1,7,-1
 967 618 l 1,8,-1
 967 449 l 1,9,-1
 1449 449 l 1,10,-1
 1449 325 l 1,11,-1
 967 325 l 1,12,-1
 967 154 l 1,13,-1
 1476 154 l 1,14,-1
 1476 25 l 1,15,-1
 704 25 l 1,16,-1
 704 51.8125 l 1,17,18
 683.41 42.3896 683.41 42.3896 661.344 34.5 c 0,19,20
 578.844 5 578.844 5 482.844 5 c 0,21,22
 369.845 5 369.845 5 285.344 34.5 c 128,-1,23
 200.845 64 200.845 64 143.344 115 c 128,-1,24
 85.8447 166 85.8447 166 56.8438 235 c 128,-1,25
 27.8438 304 27.8438 304 27.8438 382 c 128,-1,26
 27.8447 460 27.8447 460 63.3438 529 c 128,-1,27
 98.8438 598 98.8438 598 160.844 650 c 128,-1,28
 222.844 702 222.844 702 305.844 731.5 c 128,-1,29
 388.845 761 388.845 761 482.844 761 c 0,0,1
565.844 640 m 0,30,31
 516.845 640 516.845 640 472.844 621 c 128,-1,32
 428.844 602 428.844 602 396.344 569 c 128,-1,33
 363.844 536 363.844 536 344.844 491 c 128,-1,34
 325.844 446 325.844 446 325.844 396 c 0,35,36
 325.845 347 325.845 347 344.844 302.5 c 128,-1,37
 363.845 258 363.845 258 396.344 225.5 c 128,-1,38
 428.844 193 428.844 193 472.844 174 c 128,-1,39
 516.845 155 516.845 155 565.844 155 c 0,40,41
 615.845 155 615.845 155 660.344 174 c 0,42,43
 683.727 183.984 683.727 183.984 704 197.75 c 1,44,-1
 704 597.094 l 1,45,46
 683.664 611.043 683.664 611.043 660.344 621 c 0,47,48
 615.845 640 615.845 640 565.844 640 c 0,30,31
EndSplineSet
EndChar

StartChar: AE
Encoding: 198 198 123
Width: 1341
VWidth: 0
Flags: W
LayerCount: 2
Fore
SplineSet
344.438 744 m 1,0,-1
 492 744 l 1,1,-1
 854.406 744 l 1,2,-1
 1262 744 l 1,3,-1
 1262 618 l 1,4,-1
 854.406 618 l 1,5,-1
 755 618 l 1,6,-1
 755 449 l 1,7,-1
 1237 449 l 1,8,-1
 1237 325 l 1,9,-1
 755 325 l 1,10,-1
 755 154 l 1,11,-1
 1264 154 l 1,12,-1
 1264 25 l 1,13,-1
 492 25 l 1,14,-1
 492 182 l 1,15,-1
 225 182 l 1,16,-1
 160 24 l 1,17,-1
 -2 24 l 1,18,-1
 309 741 l 1,19,-1
 344.5 741 l 1,20,-1
 344.438 744 l 1,0,-1
405.562 618 m 1,21,-1
 290 337 l 1,22,-1
 492 337 l 1,23,-1
 492 618 l 1,24,-1
 405.562 618 l 1,21,-1
EndSplineSet
EndChar

StartChar: ring
Encoding: 279 730 124
Width: 490
VWidth: 0
Flags: W
LayerCount: 2
Fore
SplineSet
266.998 920.604 m 0,0,1
 258.777 920.604 258.777 920.604 251.779 917.589 c 128,-1,2
 244.81 914.584 244.81 914.584 239.602 909.254 c 128,-1,3
 234.394 903.924 234.394 903.924 231.383 896.937 c 128,-1,4
 228.368 889.939 228.368 889.939 228.367 881.972 c 0,5,6
 228.367 873.745 228.367 873.745 231.383 866.868 c 128,-1,7
 234.385 860.021 234.385 860.021 239.602 854.804 c 128,-1,8
 244.789 849.616 244.789 849.616 251.779 846.723 c 128,-1,9
 258.789 843.822 258.789 843.822 266.998 843.822 c 0,10,11
 274.955 843.822 274.955 843.822 281.963 846.723 c 128,-1,12
 288.994 849.632 288.994 849.632 294.166 854.804 c 128,-1,13
 299.359 859.996 299.359 859.996 302.5 867.007 c 128,-1,14
 305.631 873.993 305.631 873.993 305.631 881.972 c 128,-1,15
 305.631 889.953 305.631 889.953 302.5 896.937 c 128,-1,16
 299.362 903.937 299.362 903.937 294.166 909.254 c 128,-1,17
 288.976 914.565 288.976 914.565 281.963 917.589 c 128,-1,18
 274.967 920.604 274.967 920.604 266.998 920.604 c 0,0,1
244.826 976.367 m 0,19,20
 270.891 976.367 270.891 976.367 291.402 970.197 c 128,-1,21
 311.965 964.012 311.965 964.012 326.469 952.009 c 128,-1,22
 340.992 939.99 340.992 939.99 348.848 922.608 c 128,-1,23
 356.697 905.236 356.697 905.236 356.697 883.883 c 0,24,25
 356.697 864.88 356.697 864.88 347.834 847.989 c 128,-1,26
 338.986 831.13 338.986 831.13 323.797 818.611 c 128,-1,27
 308.59 806.078 308.59 806.078 288.248 798.742 c 128,-1,28
 267.885 791.398 267.885 791.398 244.826 791.397 c 0,29,30
 217.436 791.397 217.436 791.397 196.57 798.742 c 128,-1,31
 175.725 806.08 175.725 806.08 161.689 818.611 c 128,-1,32
 147.658 831.139 147.658 831.139 140.484 847.989 c 128,-1,33
 133.303 864.862 133.303 864.862 133.303 883.883 c 128,-1,34
 133.303 902.912 133.303 902.912 141.982 919.938 c 128,-1,35
 150.678 936.994 150.678 936.994 165.857 949.338 c 128,-1,36
 181.023 961.671 181.023 961.671 201.244 969.023 c 128,-1,37
 221.44 976.367 221.44 976.367 244.826 976.367 c 0,19,20
EndSplineSet
EndChar

StartChar: dieresis
Encoding: 282 168 127
Width: 697
Flags: W
LayerCount: 2
Fore
SplineSet
380 869.5 m 4,0,1
 380 892.5 380 892.5 390 912.5 c 132,-1,2
 400 932.5 400 932.5 419 948 c 132,-1,3
 438 963.5 438 963.5 464.5 972.5 c 132,-1,4
 491 981.5 491 981.5 523 981.5 c 260,5,6
 555 981.5 555 981.5 581 972.5 c 132,-1,7
 607 963.5 607 963.5 626 948 c 132,-1,8
 645 932.5 645 932.5 655 912 c 132,-1,9
 665 891.5 665 891.5 665 869.5 c 4,10,11
 665 845.5 665 845.5 655 825.5 c 132,-1,12
 645 805.5 645 805.5 626 790 c 132,-1,13
 607 774.5 607 774.5 581 766 c 132,-1,14
 555 757.5 555 757.5 523 757.5 c 260,15,16
 491 757.5 491 757.5 464.5 766 c 132,-1,17
 438 774.5 438 774.5 419 790 c 132,-1,18
 400 805.5 400 805.5 390 825.5 c 132,-1,19
 380 845.5 380 845.5 380 869.5 c 4,0,1
32 869.5 m 4,20,21
 32 892.5 32 892.5 42 912.5 c 132,-1,22
 52 932.5 52 932.5 71 948 c 132,-1,23
 90 963.5 90 963.5 116.5 972.5 c 132,-1,24
 143 981.5 143 981.5 175 981.5 c 260,25,26
 207 981.5 207 981.5 233 972.5 c 132,-1,27
 259 963.5 259 963.5 278 948 c 132,-1,28
 297 932.5 297 932.5 307 912 c 132,-1,29
 317 891.5 317 891.5 317 869.5 c 4,30,31
 317 845.5 317 845.5 307 825.5 c 132,-1,32
 297 805.5 297 805.5 278 790 c 132,-1,33
 259 774.5 259 774.5 233 766 c 132,-1,34
 207 757.5 207 757.5 175 757.5 c 260,35,36
 143 757.5 143 757.5 116.5 766 c 132,-1,37
 90 774.5 90 774.5 71 790 c 132,-1,38
 52 805.5 52 805.5 42 825.5 c 132,-1,39
 32 845.5 32 845.5 32 869.5 c 4,20,21
EndSplineSet
EndChar

StartChar: dotlessi
Encoding: 283 305 128
Width: 349
Flags: W
LayerCount: 2
Fore
SplineSet
53 502 m 1,0,1
 53.061 500.976 53.061 500.976 177.5 501.5 c 4,2,3
 237.75 501.75 237.75 501.75 298 502 c 1,4,-1
 298 0 l 1,5,-1
 53 0 l 1,6,-1
 53 502 l 1,0,1
EndSplineSet
EndChar

StartChar: hungarumlaut
Encoding: 284 733 129
Width: 844
VWidth: 0
Flags: W
LayerCount: 2
Fore
SplineSet
565.206 923.797 m 1,0,-1
 784.309 923.797 l 1,1,-1
 518.256 799.562 l 1,2,-1
 388.691 799.562 l 1,3,-1
 565.206 923.797 l 1,0,-1
288.206 923.797 m 1,4,-1
 507.309 923.797 l 1,5,-1
 241.256 799.563 l 1,6,-1
 111.691 799.563 l 1,7,-1
 288.206 923.797 l 1,4,-1
EndSplineSet
EndChar

StartChar: dotaccent
Encoding: 291 729 136
Width: 346
Flags: W
LayerCount: 2
Fore
SplineSet
32 869.5 m 0,0,1
 32 892.5 32 892.5 42 912.5 c 128,-1,2
 52 932.5 52 932.5 71 948 c 128,-1,3
 90 963.5 90 963.5 116.5 972.5 c 128,-1,4
 143 981.5 143 981.5 175 981.5 c 256,5,6
 207 981.5 207 981.5 233 972.5 c 128,-1,7
 259 963.5 259 963.5 278 948 c 128,-1,8
 297 932.5 297 932.5 307 912 c 128,-1,9
 317 891.5 317 891.5 317 869.5 c 0,10,11
 317 845.5 317 845.5 307 825.5 c 128,-1,12
 297 805.5 297 805.5 278 790 c 128,-1,13
 259 774.5 259 774.5 233 766 c 128,-1,14
 207 757.5 207 757.5 175 757.5 c 256,15,16
 143 757.5 143 757.5 116.5 766 c 128,-1,17
 90 774.5 90 774.5 71 790 c 128,-1,18
 52 805.5 52 805.5 42 825.5 c 128,-1,19
 32 845.5 32 845.5 32 869.5 c 0,0,1
EndSplineSet
EndChar

StartChar: Thorn
Encoding: 222 222 137
Width: 1089
Flags: W
LayerCount: 2
Fore
SplineSet
84 717 m 1,19,-1
 349 717 l 1,1,-1
 349 605 l 1,2,-1
 822 605 l 2,3,4
 872 605 872 605 917 588 c 128,-1,5
 962 571 962 571 994.5 542 c 128,-1,6
 1027 513 1027 513 1046 475 c 128,-1,7
 1065 437 1065 437 1065 395 c 0,8,9
 1065 341 1065 341 1037.5 302 c 128,-1,10
 1010 263 1010 263 967 238.5 c 128,-1,11
 924 214 924 214 871.5 202 c 128,-1,12
 819 190 819 190 770 190 c 2,13,-1
 349 190 l 1,14,-1
 349 0 l 1,15,-1
 346 0 l 1,16,-1
 84 0 l 1,17,-1
 83 0 l 1,18,-1
 84 717 l 1,19,-1
349 493 m 1,20,-1
 349 308 l 1,21,-1
 680 308 l 2,22,23
 705 308 705 308 726.5 315 c 128,-1,24
 748 322 748 322 764 335 c 128,-1,25
 780 348 780 348 789.5 365 c 128,-1,26
 799 382 799 382 799 400 c 0,27,28
 799 419 799 419 789.5 436 c 128,-1,29
 780 453 780 453 764 466 c 128,-1,30
 748 479 748 479 726.5 486 c 128,-1,31
 705 493 705 493 680 493 c 2,32,-1
 349 493 l 1,20,-1
EndSplineSet
EndChar

StartChar: uni00B5
Encoding: 292 181 138
Width: 852
Flags: W
LayerCount: 2
Fore
SplineSet
821 0 m 1,0,-1
 577 0 l 1,1,-1
 577 88 l 1,2,3
 538 49 538 49 476.5 24 c 128,-1,4
 415 -1 415 -1 324 -1 c 0,5,6
 298.887 -1 298.887 -1 276 0.507478 c 1,7,-1
 276 -206 l 1,8,-1
 32 -206 l 1,9,-1
 32 229 l 1,10,-1
 32 511 l 1,11,-1
 32 512 l 1,12,-1
 269 512 l 1,13,-1
 269 250 l 2,14,15
 269 175 269 175 305.5 139 c 128,-1,16
 342 103 342 103 420 103 c 0,17,18
 476 103 476 103 514.5 131 c 128,-1,19
 553 159 553 159 577 194 c 1,20,-1
 577 512 l 1,21,-1
 821 512 l 1,22,-1
 821 0 l 1,0,-1
EndSplineSet
EndChar

StartChar: thorn
Encoding: 254 254 139
Width: 852
Flags: W
LayerCount: 2
Fore
SplineSet
821 263 m 0,0,1
 821 204 821 204 796 152 c 128,-1,2
 771 100 771 100 726.5 62 c 128,-1,3
 682 24 682 24 621 2 c 128,-1,4
 560 -20 560 -20 488 -20 c 0,5,6
 406 -20 406 -20 357 -5.5 c 128,-1,7
 308 9 308 9 276 38 c 1,8,-1
 276 -206 l 1,9,-1
 32 -206 l 1,10,-1
 32 718 l 1,11,-1
 276 718 l 1,12,-1
 276 433 l 1,13,14
 315 469 315 469 373.5 491 c 128,-1,15
 432 513 432 513 509 513 c 0,16,17
 578 513 578 513 635.5 494 c 128,-1,18
 693 475 693 475 734 441.5 c 128,-1,19
 775 408 775 408 798 362 c 128,-1,20
 821 316 821 316 821 263 c 0,0,1
423 84 m 0,21,22
 457 84 457 84 486 97.5 c 128,-1,23
 515 111 515 111 537 133.5 c 128,-1,24
 559 156 559 156 571.5 184.5 c 128,-1,25
 584 213 584 213 584 244 c 0,26,27
 584 278 584 278 572 307.5 c 128,-1,28
 560 337 560 337 538.5 359.5 c 128,-1,29
 517 382 517 382 487.5 395.5 c 128,-1,30
 458 409 458 409 423 409 c 0,31,32
 367 409 367 409 333 396 c 128,-1,33
 299 383 299 383 276 356 c 1,34,-1
 276 126 l 1,35,36
 323 84 323 84 423 84 c 0,21,22
EndSplineSet
EndChar

StartChar: uni0237
Encoding: 305 567 156
Width: 386
Flags: W
LayerCount: 2
Fore
SplineSet
335 503 m 0,0,1
 335 34 l 1,2,3
 333 -19 333 -19 310.5 -65.5 c 128,-1,4
 288 -112 288 -112 246.5 -145.5 c 128,-1,5
 205 -179 205 -179 146.5 -198 c 128,-1,6
 88 -217 88 -217 15 -217 c 0,7,8
 -50 -217 -50 -217 -97.5 -202.5 c 128,-1,9
 -145 -188 -145 -188 -162 -172 c 1,10,11
 -127 -106 l 1,12,13
 -117 -112 -117 -112 -94 -115.5 c 128,-1,14
 -71 -119 -71 -119 -52 -119 c 0,15,16
 25 -119 25 -119 56.5 -80 c 128,-1,17
 88 -41 88 -41 90 35 c 1,18,-1
 90 502 l 0,19,20
 336 502 336 502 335 503 c 0,0,1
EndSplineSet
EndChar

